<svg width="32" height="32" viewBox="0 0 32 32" fill="none" xmlns="http://www.w3.org/2000/svg">
<g clip-path="url(#clip0_25_3)">
<path d="M0 21.1775V10.1518H3.96008C5.37865 10.1518 6.458 10.4117 7.19701 10.9316C7.93659 11.4514 8.30638 12.2063 8.30638 13.1956C8.30638 13.7664 8.175 14.2529 7.91281 14.6572C7.65061 15.061 7.2644 15.3588 6.75417 15.5508C7.32952 15.702 7.7718 15.9851 8.0793 16.3991C8.38679 16.8131 8.54139 17.3182 8.54139 17.9134C8.54139 18.9933 8.19935 19.8054 7.51527 20.3479C6.83119 20.8904 5.81809 21.1667 4.47484 21.1769L0 21.1775ZM2.65761 14.7484H4.04333C4.62378 14.7433 5.03774 14.6368 5.28521 14.429C5.53211 14.2217 5.65613 13.9153 5.65613 13.5099C5.65613 13.0444 5.52249 12.7086 5.25463 12.5036C4.98677 12.2986 4.55526 12.1961 3.95952 12.1961H2.65704L2.65761 14.7484ZM2.65761 16.4897V19.1326H4.39896C4.87861 19.1326 5.24727 19.0227 5.50436 18.803C5.76203 18.5833 5.89058 18.2741 5.89058 17.8754C5.89058 16.9563 5.43358 16.4948 4.52015 16.4897H2.65761Z" fill="#50B0A4"/>
<path d="M12.835 21.1775H10.1848V10.1518H12.835V21.1775Z" fill="#50B0A4"/>
<path d="M20.3696 18.2469C20.3696 17.8579 20.2319 17.5549 19.9567 17.338C19.6815 17.1211 19.1985 16.8963 18.5064 16.6641C17.8144 16.432 17.2493 16.2071 16.8104 15.9902C15.3822 15.2886 14.6676 14.3242 14.6676 13.0976C14.6676 12.4872 14.8454 11.9475 15.2016 11.4809C15.5572 11.0142 16.0612 10.6507 16.7124 10.3902C17.3637 10.1302 18.0953 10 18.9085 10C19.7217 10 20.4115 10.141 21.04 10.4242C21.6686 10.7073 22.1568 11.1094 22.505 11.6321C22.8533 12.1547 23.0277 12.7516 23.0277 13.4227H20.3775C20.3775 12.973 20.2399 12.6248 19.9647 12.3779C19.6894 12.131 19.3174 12.0069 18.8479 12.0069C18.3785 12.0069 17.9985 12.1117 17.7233 12.3212C17.448 12.5308 17.3104 12.7975 17.3104 13.1203C17.3104 13.4034 17.4616 13.6588 17.7646 13.8887C18.0676 14.1186 18.6005 14.3554 19.3621 14.6006C20.1243 14.8458 20.7507 15.1091 21.2399 15.3917C22.4314 16.078 23.0272 17.0243 23.0272 18.2311C23.0272 19.1955 22.6636 19.9526 21.9365 20.5025C21.2094 21.0523 20.2127 21.3281 18.9453 21.3281C18.0517 21.3281 17.2425 21.1679 16.5182 20.8473C15.7939 20.5268 15.2486 20.0874 14.8827 19.5296C14.5164 18.9718 14.334 18.3296 14.334 17.6025H16.9995C16.9995 18.1931 17.1519 18.6286 17.4577 18.9089C17.7635 19.1892 18.259 19.3291 18.9459 19.3291C19.3853 19.3291 19.7325 19.2345 19.9873 19.0454C20.2421 18.8562 20.3696 18.5907 20.3696 18.2469Z" fill="#50B0A4"/>
<path d="M31.2282 16.4976H27.0483V19.1326H31.9853V21.1769H24.3902V10.1518H32V12.204H27.0478V14.5286H31.2276L31.2282 16.4976Z" fill="#50B0A4"/>
</g>
<defs>
<clipPath id="clip0_25_3">
<rect width="32" height="32" fill="white"/>
</clipPath>
</defs>
</svg>
