<svg width="270" height="88" viewBox="0 0 270 88" fill="none" xmlns="http://www.w3.org/2000/svg">
<path d="M123.941 81.0967L121.409 72.7846H108.678L106.147 81.0967H98.1689L110.494 46.0332H119.546L131.919 81.0967H123.941ZM119.642 66.5745C117.301 59.0427 115.979 54.7831 115.677 53.7959C115.39 52.8086 115.183 52.0284 115.056 51.4551C114.53 53.4933 113.026 58.5331 110.541 66.5745H119.642Z" fill="#2F2F2F"/>
<path d="M165.263 63.3034C165.263 69.0518 163.623 73.4547 160.342 76.512C157.078 79.5693 152.357 81.0979 146.179 81.0979H136.29V46.1777H147.253C152.954 46.1777 157.381 47.6825 160.534 50.6921C163.686 53.7016 165.263 57.9054 165.263 63.3034ZM157.572 63.4945C157.572 55.9946 154.26 52.2446 147.636 52.2446H143.694V74.9833H146.871C154.005 74.9833 157.572 71.1537 157.572 63.4945V63.4945Z" fill="#2F2F2F"/>
<path d="M192.909 81.0967L190.377 72.7846H177.646L175.114 81.0967H167.137L179.461 46.0332H188.514L200.887 81.0967H192.909ZM188.61 66.5745C186.269 59.0427 184.947 54.7831 184.645 53.7959C184.358 52.8086 184.151 52.0284 184.024 51.4551C183.498 53.4933 181.993 58.5331 179.509 66.5745H188.61Z" fill="#2F2F2F"/>
<path d="M212.675 62.6108H215.111C217.388 62.6108 219.092 62.1649 220.223 61.2732C221.353 60.3656 221.919 59.0519 221.919 57.3321C221.919 55.5965 221.441 54.3146 220.485 53.4866C219.546 52.6586 218.065 52.2446 216.043 52.2446H212.675V62.6108ZM229.395 57.0694C229.395 60.8273 228.216 63.7015 225.86 65.692C223.519 67.6824 220.183 68.6776 215.852 68.6776H212.675V81.0979H205.271V46.1777H216.425C220.661 46.1777 223.877 47.0933 226.075 48.9245C228.288 50.7398 229.395 53.4548 229.395 57.0694V57.0694Z" fill="#2F2F2F"/>
<path d="M249.505 81.0979H242.101V52.3401H232.618V46.1777H258.987V52.3401H249.505V81.0979Z" fill="#2F2F2F"/>
<path d="M112.521 12.9251C110.08 12.9251 108.19 13.8456 106.851 15.6867C105.512 17.5138 104.843 20.0662 104.843 23.3439C104.843 30.1643 107.402 33.5744 112.521 33.5744C114.669 33.5744 117.27 33.0375 120.325 31.9635V37.403C117.814 38.4491 115.011 38.9721 111.914 38.9721C107.465 38.9721 104.062 37.6262 101.705 34.9343C99.3475 32.2285 98.1689 28.3511 98.1689 23.302C98.1689 20.122 98.7478 17.3395 99.9054 14.9544C101.063 12.5554 102.723 10.7213 104.885 9.45212C107.061 8.16894 109.606 7.52734 112.521 7.52734C115.492 7.52734 118.477 8.24564 121.475 9.68224L119.383 14.9544C118.239 14.4105 117.089 13.9363 115.931 13.5318C114.774 13.1273 113.637 12.9251 112.521 12.9251V12.9251Z" fill="#2F2F2F"/>
<path d="M132.689 38.5536H126.308V6H132.689V38.5536Z" fill="#2F2F2F"/>
<path d="M139.091 9.11729C139.091 7.0391 140.248 6 142.564 6C144.879 6 146.037 7.0391 146.037 9.11729C146.037 10.1076 145.744 10.8816 145.158 11.4395C144.586 11.9835 143.721 12.2555 142.564 12.2555C140.248 12.2555 139.091 11.2094 139.091 9.11729V9.11729ZM145.744 38.5536H139.363V15.1636H145.744V38.5536Z" fill="#2F2F2F"/>
<path d="M173.36 38.554H166.979V24.8924C166.979 23.2047 166.693 21.9425 166.121 21.1056C165.564 20.2548 164.678 19.8294 163.464 19.8294C161.833 19.8294 160.647 20.4292 159.908 21.6287C159.169 22.8281 158.799 24.8017 158.799 27.5494V38.554H152.418V15.164H157.293L158.15 18.1557H158.506C159.134 17.0818 160.04 16.2449 161.226 15.6452C162.411 15.0315 163.771 14.7246 165.306 14.7246C168.806 14.7246 171.177 15.8683 172.419 18.1557H172.984C173.611 17.0678 174.532 16.224 175.745 15.6242C176.973 15.0245 178.353 14.7246 179.888 14.7246C182.538 14.7246 184.539 15.408 185.892 16.7749C187.259 18.1278 187.942 20.3036 187.942 23.3024V38.554H181.54V24.8924C181.54 23.2047 181.255 21.9425 180.683 21.1056C180.125 20.2548 179.239 19.8294 178.026 19.8294C176.464 19.8294 175.292 20.3873 174.511 21.5031C173.744 22.6189 173.36 24.3903 173.36 26.8171V38.554Z" fill="#2F2F2F"/>
<path d="M209.366 38.5539L208.132 35.3738H207.964C206.89 36.7268 205.782 37.6682 204.638 38.1982C203.508 38.7143 202.03 38.9723 200.203 38.9723C197.957 38.9723 196.186 38.3307 194.889 37.0476C193.605 35.7644 192.964 33.9372 192.964 31.5662C192.964 29.0835 193.829 27.2564 195.558 26.0848C197.302 24.8992 199.924 24.2437 203.425 24.1182L207.483 23.9926V22.9675C207.483 20.5964 206.27 19.4108 203.843 19.4108C201.974 19.4108 199.777 19.9757 197.253 21.1055L195.14 16.7957C197.832 15.387 200.816 14.6826 204.094 14.6826C207.232 14.6826 209.638 15.3661 211.312 16.7329C212.986 18.0998 213.822 20.178 213.822 22.9675V38.5539H209.366ZM207.483 27.7166L205.015 27.8003C203.16 27.8561 201.779 28.1908 200.872 28.8045C199.966 29.4182 199.512 30.3527 199.512 31.608C199.512 33.4072 200.544 34.3068 202.609 34.3068C204.087 34.3068 205.266 33.8814 206.144 33.0306C207.037 32.1798 207.483 31.0501 207.483 29.6414V27.7166Z" fill="#2F2F2F"/>
<path d="M230.225 33.8885C231.341 33.8885 232.68 33.6444 234.242 33.1562V37.9054C232.652 38.6167 230.699 38.9723 228.384 38.9723C225.831 38.9723 223.969 38.3308 222.798 37.0476C221.64 35.7505 221.061 33.8117 221.061 31.2314V19.9548H218.007V17.256L221.522 15.122L223.363 10.1846H227.442V15.1639H233.991V19.9548H227.442V31.2314C227.442 32.138 227.693 32.8075 228.196 33.2399C228.712 33.6723 229.388 33.8885 230.225 33.8885V33.8885Z" fill="#2F2F2F"/>
<path d="M248.637 19.2645C247.284 19.2645 246.224 19.6969 245.457 20.5617C244.689 21.4125 244.25 22.6259 244.138 24.202H253.093C253.065 22.6259 252.653 21.4125 251.858 20.5617C251.063 19.6969 249.989 19.2645 248.637 19.2645V19.2645ZM249.536 38.9725C245.77 38.9725 242.827 37.9334 240.707 35.8552C238.587 33.777 237.527 30.8341 237.527 27.0264C237.527 23.1071 238.504 20.0805 240.456 17.9465C242.423 15.7986 245.136 14.7246 248.595 14.7246C251.9 14.7246 254.474 15.6661 256.315 17.549C258.156 19.4319 259.076 22.0331 259.076 25.3527V28.449H243.992C244.062 30.2622 244.599 31.6779 245.603 32.696C246.607 33.7142 248.016 34.2233 249.829 34.2233C251.238 34.2233 252.57 34.0769 253.825 33.784C255.08 33.4911 256.391 33.0238 257.758 32.3822V37.3197C256.642 37.8776 255.45 38.289 254.181 38.554C252.911 38.833 251.363 38.9725 249.536 38.9725V38.9725Z" fill="#2F2F2F"/>
<path d="M33.7474 21.775C38.2292 21.6568 40.543 19.7538 41.0068 16.2317C41.4707 12.7096 38.9437 9.70089 35.3982 9.24025C29.2 8.43497 24.1252 14.4859 21.0137 21.0154C26.6161 19.5065 29.4546 21.8884 33.7474 21.775Z" fill="#005C96"/>
<path d="M23.4245 35.0705C26.8807 32.2169 27.5151 29.2935 25.6817 26.2344C23.8483 23.1753 19.9796 22.3626 16.8996 24.1836C11.515 27.3669 11.2954 35.2571 12.9209 42.315C16.3916 37.6764 20.1141 37.8037 23.4245 35.0705Z" fill="#005C96"/>
<path d="M50.131 17.6885C53.7299 20.3624 56.7401 20.2946 59.3086 17.8114C61.8771 15.3283 61.7722 11.4023 59.272 8.85125C54.9012 4.39145 47.1242 6.01643 40.5918 9.22989C45.9419 11.5021 46.684 15.1274 50.131 17.6885Z" fill="#005C96"/>
<path d="M48.07 81.0979C69.0085 81.0979 85.9826 64.2394 85.9826 43.4432C85.9826 33.7731 82.3124 24.9544 76.2799 18.2861C81.1166 47.3285 51.3299 41.4683 32.9114 47.1342C18.1767 51.6671 18.1831 63.4343 19.9652 68.7657C57.2844 83.2965 73.834 60.8838 77.507 47.8466C76.4377 72.6862 48.8306 78.8713 35.1608 78.8589C39.1901 80.3077 43.5371 81.0979 48.07 81.0979Z" fill="#8A9C3A"/>
<path d="M73.1997 15.6608C70.4295 13.876 66.8704 12.6814 63.3145 11.9844C65.0683 15.0841 65.1245 17.5352 65.1792 19.9211C65.2135 21.4131 65.2471 22.8796 65.6949 24.4633C66.9101 28.7609 69.3395 30.5276 72.8993 30.1114C73.039 30.0951 73.1768 30.0745 73.3126 30.0498C74.2542 27.3152 74.5334 23.6691 73.7074 18.709L73.1997 15.6608Z" fill="#005C96"/>
<path d="M23.7696 48.8349C23.6235 46.2509 22.2736 44.5295 19.816 43.5637C16.483 42.254 12.9201 43.9575 11.6013 47.2678C9.72508 51.9775 12.4744 57.08 16.5964 61.2972C16.78 59.804 17.1461 58.2584 17.7528 56.7197C18.8823 53.8549 20.8068 51.1163 23.7696 48.8349Z" fill="#005C96"/>
</svg>
