<svg width="248" height="50" viewBox="0 0 248 50" fill="none" xmlns="http://www.w3.org/2000/svg">
<path d="M166.53 14.6297C166.53 15.105 166.358 15.4779 166.014 15.7485C165.67 16.019 165.196 16.1543 164.592 16.1543C163.987 16.1543 163.493 16.0604 163.107 15.8728V15.0465C163.351 15.161 163.61 15.2512 163.883 15.317C164.158 15.3828 164.414 15.4157 164.65 15.4157C164.996 15.4157 165.251 15.3499 165.414 15.2183C165.58 15.0867 165.663 14.91 165.663 14.6882C165.663 14.4883 165.587 14.3189 165.436 14.18C165.285 14.0411 164.973 13.8765 164.5 13.6864C164.013 13.489 163.669 13.2635 163.469 13.01C163.27 12.7566 163.17 12.4519 163.17 12.096C163.17 11.65 163.328 11.299 163.645 11.0431C163.962 10.7871 164.387 10.6592 164.921 10.6592C165.433 10.6592 165.942 10.7713 166.449 10.9955L166.171 11.7085C165.696 11.5086 165.272 11.4087 164.899 11.4087C164.616 11.4087 164.402 11.4708 164.255 11.5951C164.109 11.717 164.036 11.8791 164.036 12.0814C164.036 12.2203 164.065 12.3398 164.124 12.4397C164.182 12.5372 164.279 12.6298 164.413 12.7176C164.547 12.8053 164.788 12.9211 165.137 13.0649C165.529 13.2282 165.817 13.3805 165.999 13.5219C166.182 13.6633 166.316 13.8229 166.402 14.0008C166.487 14.1788 166.53 14.3884 166.53 14.6297V14.6297Z" fill="#2F2F2F"/>
<path d="M171.788 16.0815H170.91V13.6722H168.446V16.0815H167.572V10.7363H168.446V12.9227H170.91V10.7363H171.788V16.0815Z" fill="#2F2F2F"/>
<path d="M176.518 16.081L175.984 14.5966H173.94L173.417 16.081H172.496L174.496 10.7139H175.447L177.446 16.081H176.518ZM175.754 13.8435L175.253 12.3883C175.216 12.2909 175.165 12.1373 175.099 11.9277C175.036 11.7181 174.992 11.5645 174.968 11.467C174.902 11.7668 174.806 12.0947 174.679 12.4505L174.196 13.8435H175.754Z" fill="#2F2F2F"/>
<path d="M179.034 13.2225H179.641C180.048 13.2225 180.343 13.1469 180.526 12.9958C180.708 12.8447 180.8 12.6204 180.8 12.3231C180.8 12.0208 180.701 11.8039 180.504 11.6723C180.306 11.5407 180.009 11.4749 179.612 11.4749H179.034V13.2225ZM179.034 13.9464V16.0815H178.16V10.7363H179.67C180.36 10.7363 180.871 10.8655 181.202 11.1239C181.533 11.3822 181.699 11.7722 181.699 12.2938C181.699 12.9592 181.353 13.4333 180.661 13.716L182.171 16.0815H181.176L179.897 13.9464H179.034Z" fill="#2F2F2F"/>
<path d="M182.942 16.0815V10.7363H183.816V16.0815H182.942Z" fill="#2F2F2F"/>
<path d="M189.676 16.0815H188.605L185.976 11.8222H185.947L185.965 12.0598C185.999 12.5132 186.016 12.9275 186.016 13.3029V16.0815H185.223V10.7363H186.283L188.904 14.9737H188.926C188.921 14.9177 188.912 14.7141 188.897 14.3632C188.882 14.0097 188.875 13.7343 188.875 13.5369V10.7363H189.676L189.676 16.0815Z" fill="#2F2F2F"/>
<path d="M193.276 13.1809H195.243V15.8645C194.921 15.9693 194.611 16.0436 194.314 16.0875C194.019 16.1314 193.7 16.1533 193.356 16.1533C192.547 16.1533 191.923 15.9144 191.484 15.4367C191.046 14.9565 190.826 14.2802 190.826 13.4076C190.826 12.5472 191.074 11.8745 191.568 11.3894C192.063 10.9019 192.744 10.6582 193.612 10.6582C194.17 10.6582 194.699 10.7654 195.199 10.9799L194.892 11.7075C194.458 11.5076 194.024 11.4077 193.59 11.4077C193.02 11.4077 192.569 11.5868 192.237 11.9451C191.906 12.3034 191.74 12.7934 191.74 13.4149C191.74 14.0681 191.889 14.5653 192.186 14.9066C192.486 15.2454 192.916 15.4148 193.477 15.4148C193.76 15.4148 194.062 15.3794 194.384 15.3088V13.9304H193.276V13.1809Z" fill="#2F2F2F"/>
<path d="M201.79 16.081L201.256 14.5966H199.213L198.69 16.081H197.769L199.768 10.7139H200.719L202.719 16.081H201.79ZM201.026 13.8435L200.525 12.3883C200.489 12.2909 200.437 12.1373 200.372 11.9277C200.308 11.7181 200.264 11.5645 200.24 11.467C200.174 11.7668 200.078 12.0947 199.951 12.4505L199.469 13.8435H201.026Z" fill="#2F2F2F"/>
<path d="M207.778 13.3577C207.778 14.2401 207.533 14.9152 207.043 15.3832C206.553 15.8488 205.847 16.0815 204.926 16.0815H203.431V10.7363H205.083C205.934 10.7363 206.596 10.9654 207.068 11.4237C207.541 11.8819 207.778 12.5266 207.778 13.3577ZM206.856 13.387C206.856 12.1074 206.258 11.4676 205.061 11.4676H204.304V15.3467H204.926C206.213 15.3467 206.856 14.6934 206.856 13.387Z" fill="#2F2F2F"/>
<path d="M212.097 16.081L211.563 14.5966H209.519L208.997 16.081H208.075L210.075 10.7139H211.026L213.026 16.081H212.097ZM211.333 13.8435L210.832 12.3883C210.795 12.2909 210.744 12.1373 210.678 11.9277C210.615 11.7181 210.571 11.5645 210.547 11.467C210.481 11.7668 210.385 12.0947 210.258 12.4505L209.775 13.8435H211.333Z" fill="#2F2F2F"/>
<path d="M217.281 12.3523C217.281 12.9105 217.098 13.3382 216.733 13.6356C216.367 13.933 215.847 14.0817 215.172 14.0817H214.616V16.0815H213.742V10.7363H215.281C215.949 10.7363 216.449 10.8728 216.78 11.1458C217.114 11.4188 217.281 11.821 217.281 12.3523V12.3523ZM214.616 13.3468H215.08C215.529 13.3468 215.858 13.2688 216.067 13.1128C216.277 12.9568 216.382 12.7131 216.382 12.3816C216.382 12.0745 216.288 11.8453 216.1 11.6942C215.913 11.5431 215.62 11.4675 215.223 11.4675H214.616V13.3468Z" fill="#2F2F2F"/>
<path d="M220.194 16.0815H219.32V11.4858H217.748V10.7363H221.766V11.4858H220.194V16.0815Z" fill="#2F2F2F"/>
<path d="M225.381 16.081L224.847 14.5966H222.804L222.281 16.081H221.359L223.359 10.7139H224.31L226.31 16.081H225.381ZM224.617 13.8435L224.116 12.3883C224.079 12.2909 224.028 12.1373 223.962 11.9277C223.899 11.7181 223.855 11.5645 223.831 11.467C223.765 11.7668 223.669 12.0947 223.542 12.4505L223.059 13.8435H224.617Z" fill="#2F2F2F"/>
<path d="M228.343 16.0815H227.47V11.4858H225.897V10.7363H229.915V11.4858H228.343V16.0815Z" fill="#2F2F2F"/>
<path d="M230.735 16.0815V10.7363H231.609V16.0815H230.735Z" fill="#2F2F2F"/>
<path d="M237.761 13.4007C237.761 14.2709 237.543 14.9473 237.106 15.4299C236.672 15.9125 236.057 16.1538 235.26 16.1538C234.453 16.1538 233.833 15.9149 233.399 15.4372C232.968 14.957 232.752 14.2758 232.752 13.3934C232.752 12.5111 232.969 11.8335 233.403 11.3606C233.839 10.8878 234.461 10.6514 235.267 10.6514C236.062 10.6514 236.676 10.8914 237.11 11.3716C237.544 11.8518 237.761 12.5282 237.761 13.4007V13.4007ZM233.681 13.4007C233.681 14.0588 233.813 14.5585 234.079 14.8997C234.345 15.2385 234.738 15.4079 235.26 15.4079C235.779 15.4079 236.17 15.2398 236.434 14.9034C236.699 14.567 236.832 14.0662 236.832 13.4007C236.832 12.7451 236.701 12.2479 236.437 11.9091C236.176 11.5703 235.787 11.4009 235.267 11.4009C234.743 11.4009 234.347 11.5703 234.079 11.9091C233.813 12.2479 233.681 12.7451 233.681 13.4007Z" fill="#2F2F2F"/>
<path d="M243.361 16.0815H242.29L239.661 11.8222H239.632L239.65 12.0598C239.685 12.5132 239.702 12.9275 239.702 13.3029V16.0815H238.908V10.7363H239.968L242.59 14.9737H242.612C242.607 14.9177 242.597 14.7141 242.583 14.3632C242.568 14.0097 242.561 13.7343 242.561 13.5369V10.7363H243.361L243.361 16.0815Z" fill="#2F2F2F"/>
<path d="M163.108 27.5835V22.2383H163.982V27.5835H163.108Z" fill="#2F2F2F"/>
<path d="M169.844 27.5835H168.773L166.144 23.3241H166.115L166.133 23.5618C166.167 24.0151 166.184 24.4295 166.184 24.8049V27.5835H165.391V22.2383H166.451L169.072 26.4757H169.094C169.089 26.4196 169.08 26.2161 169.065 25.8651C169.05 25.5117 169.043 25.2363 169.043 25.0388V22.2383H169.844L169.844 27.5835Z" fill="#2F2F2F"/>
<path d="M172.121 27.5835H171.255V22.2383H174.271V22.9768H172.121V24.6476H174.136V25.3898H172.121V27.5835Z" fill="#2F2F2F"/>
<path d="M179.993 24.9027C179.993 25.7728 179.775 26.4492 179.339 26.9318C178.905 27.4144 178.289 27.6557 177.492 27.6557C176.686 27.6557 176.065 27.4169 175.632 26.9391C175.2 26.459 174.984 25.7777 174.984 24.8954C174.984 24.0131 175.201 23.3355 175.635 22.8626C176.071 22.3897 176.693 22.1533 177.5 22.1533C178.294 22.1533 178.909 22.3934 179.342 22.8736C179.776 23.3537 179.993 24.0301 179.993 24.9027ZM175.913 24.9027C175.913 25.5608 176.046 26.0605 176.312 26.4017C176.577 26.7405 176.971 26.9099 177.492 26.9099C178.012 26.9099 178.403 26.7417 178.666 26.4053C178.932 26.069 179.065 25.5681 179.065 24.9027C179.065 24.247 178.933 23.7498 178.67 23.411C178.409 23.0722 178.019 22.9028 177.5 22.9028C176.976 22.9028 176.58 23.0722 176.312 23.411C176.046 23.7498 175.913 24.247 175.913 24.9027Z" fill="#2F2F2F"/>
<path d="M182.014 24.7244H182.621C183.028 24.7244 183.323 24.6489 183.506 24.4977C183.689 24.3466 183.78 24.1224 183.78 23.825C183.78 23.5228 183.682 23.3059 183.484 23.1742C183.287 23.0426 182.989 22.9768 182.592 22.9768H182.014V24.7244ZM182.014 25.4483V27.5835H181.141V22.2383H182.651C183.34 22.2383 183.851 22.3675 184.182 22.6258C184.514 22.8842 184.68 23.2742 184.68 23.7958C184.68 24.4612 184.334 24.9352 183.641 25.218L185.151 27.5835H184.157L182.877 25.4483H182.014Z" fill="#2F2F2F"/>
<path d="M188.233 27.5835L186.682 23.1194H186.653C186.695 23.7824 186.715 24.4039 186.715 24.984V27.5835H185.922V22.2383H187.154L188.638 26.4903H188.66L190.189 22.2383H191.424V27.5835H190.583V24.9401C190.583 24.6744 190.589 24.3283 190.602 23.9018C190.616 23.4753 190.629 23.2169 190.638 23.1267H190.609L189.004 27.5835H188.233Z" fill="#2F2F2F"/>
<path d="M196.156 27.583L195.623 26.0986H193.579L193.056 27.583H192.135L194.135 22.2158H195.085L197.085 27.583H196.156ZM195.392 25.3454L194.891 23.8903C194.855 23.7928 194.804 23.6393 194.738 23.4296C194.675 23.22 194.631 23.0665 194.606 22.969C194.54 23.2688 194.444 23.5966 194.317 23.9525L193.835 25.3454H195.392Z" fill="#2F2F2F"/>
<path d="M199.119 27.5835H198.245V22.9878H196.673V22.2383H200.691V22.9878H199.119V27.5835Z" fill="#2F2F2F"/>
<path d="M201.512 27.5835V22.2383H202.386V27.5835H201.512Z" fill="#2F2F2F"/>
<path d="M208.54 24.9027C208.54 25.7728 208.322 26.4492 207.886 26.9318C207.452 27.4144 206.836 27.6557 206.039 27.6557C205.233 27.6557 204.612 27.4169 204.178 26.9391C203.747 26.459 203.531 25.7777 203.531 24.8954C203.531 24.0131 203.748 23.3355 204.182 22.8626C204.618 22.3897 205.24 22.1533 206.047 22.1533C206.841 22.1533 207.455 22.3934 207.889 22.8736C208.323 23.3537 208.54 24.0301 208.54 24.9027ZM204.46 24.9027C204.46 25.5608 204.593 26.0605 204.858 26.4017C205.124 26.7405 205.518 26.9099 206.039 26.9099C206.558 26.9099 206.95 26.7417 207.213 26.4053C207.479 26.069 207.611 25.5681 207.611 24.9027C207.611 24.247 207.48 23.7498 207.217 23.411C206.956 23.0722 206.566 22.9028 206.047 22.9028C205.523 22.9028 205.127 23.0722 204.858 23.411C204.593 23.7498 204.46 24.247 204.46 24.9027Z" fill="#2F2F2F"/>
<path d="M214.14 27.5835H213.068L210.44 23.3241H210.41L210.429 23.5618C210.463 24.0151 210.48 24.4295 210.48 24.8049V27.5835H209.687V22.2383H210.747L213.368 26.4757H213.39C213.385 26.4196 213.376 26.2161 213.361 25.8651C213.346 25.5117 213.339 25.2363 213.339 25.0388V22.2383H214.14L214.14 27.5835Z" fill="#2F2F2F"/>
<path d="M167.13 39.0878L166.596 37.6035H164.553L164.03 39.0878H163.108L165.108 33.7207H166.059L168.059 39.0878H167.13ZM166.366 36.8503L165.865 35.3952C165.829 35.2977 165.777 35.1441 165.712 34.9345C165.648 34.7249 165.604 34.5714 165.58 34.4739C165.514 34.7737 165.418 35.1015 165.291 35.4573L164.808 36.8503H166.366Z" fill="#2F2F2F"/>
<path d="M170.899 34.4155C170.397 34.4155 170.002 34.5934 169.714 34.9493C169.426 35.3052 169.283 35.7963 169.283 36.4227C169.283 37.0784 169.42 37.5744 169.696 37.9107C169.974 38.2471 170.375 38.4153 170.899 38.4153C171.125 38.4153 171.345 38.3933 171.557 38.3495C171.769 38.3031 171.989 38.2447 172.218 38.174V38.9235C171.799 39.0819 171.324 39.1611 170.793 39.1611C170.01 39.1611 169.409 38.9247 168.99 38.4518C168.571 37.9765 168.361 37.2977 168.361 36.4154C168.361 35.8597 168.462 35.3734 168.665 34.9566C168.87 34.5398 169.164 34.2205 169.55 33.9987C169.935 33.7769 170.387 33.666 170.906 33.666C171.452 33.666 171.956 33.7806 172.42 34.0097L172.105 34.7372C171.925 34.6519 171.733 34.5776 171.531 34.5142C171.331 34.4484 171.12 34.4155 170.899 34.4155V34.4155Z" fill="#2F2F2F"/>
<path d="M174.254 36.2293H174.861C175.268 36.2293 175.563 36.1537 175.745 36.0026C175.928 35.8515 176.02 35.6273 176.02 35.3299C176.02 35.0277 175.921 34.8107 175.723 34.6791C175.526 34.5475 175.229 34.4817 174.831 34.4817H174.254V36.2293ZM174.254 36.9532V39.0884H173.38V33.7432H174.89C175.58 33.7432 176.09 33.8723 176.422 34.1307C176.753 34.3891 176.919 34.7791 176.919 35.3007C176.919 35.9661 176.573 36.4401 175.881 36.7229L177.391 39.0884H176.396L175.117 36.9532H174.254Z" fill="#2F2F2F"/>
<path d="M182.907 36.4076C182.907 37.2777 182.689 37.9541 182.253 38.4367C181.819 38.9193 181.204 39.1606 180.406 39.1606C179.6 39.1606 178.979 38.9217 178.546 38.444C178.114 37.9639 177.898 37.2826 177.898 36.4003C177.898 35.5179 178.115 34.8403 178.549 34.3675C178.986 33.8946 179.607 33.6582 180.414 33.6582C181.208 33.6582 181.823 33.8983 182.256 34.3785C182.69 34.8586 182.907 35.535 182.907 36.4076V36.4076ZM178.827 36.4076C178.827 37.0657 178.96 37.5653 179.226 37.9066C179.491 38.2454 179.885 38.4148 180.406 38.4148C180.926 38.4148 181.317 38.2466 181.58 37.9102C181.846 37.5739 181.979 37.073 181.979 36.4076C181.979 35.7519 181.847 35.2547 181.584 34.9159C181.323 34.5771 180.933 34.4077 180.414 34.4077C179.89 34.4077 179.494 34.5771 179.226 34.9159C178.96 35.2547 178.827 35.7519 178.827 36.4076Z" fill="#2F2F2F"/>
<path d="M187.138 37.6365C187.138 38.1118 186.966 38.4847 186.622 38.7553C186.279 39.0258 185.805 39.1611 185.2 39.1611C184.596 39.1611 184.101 39.0673 183.716 38.8796V38.0533C183.96 38.1679 184.218 38.2581 184.491 38.3239C184.766 38.3897 185.022 38.4226 185.259 38.4226C185.605 38.4226 185.86 38.3568 186.023 38.2252C186.189 38.0935 186.271 37.9168 186.271 37.695C186.271 37.4952 186.196 37.3258 186.045 37.1868C185.894 37.0479 185.582 36.8834 185.109 36.6933C184.621 36.4958 184.278 36.2704 184.078 36.0169C183.878 35.7634 183.778 35.4587 183.778 35.1029C183.778 34.6568 183.936 34.3058 184.253 34.0499C184.57 33.794 184.995 33.666 185.529 33.666C186.041 33.666 186.551 33.7781 187.057 34.0024L186.78 34.7153C186.304 34.5154 185.88 34.4155 185.507 34.4155C185.225 34.4155 185.01 34.4777 184.864 34.602C184.718 34.7238 184.644 34.8859 184.644 35.0882C184.644 35.2272 184.674 35.3466 184.732 35.4465C184.791 35.544 184.887 35.6366 185.021 35.7244C185.155 35.8121 185.396 35.9279 185.745 36.0717C186.137 36.235 186.425 36.3874 186.608 36.5287C186.791 36.6701 186.925 36.8297 187.01 37.0077C187.095 37.1856 187.138 37.3952 187.138 37.6365V37.6365Z" fill="#2F2F2F"/>
<path d="M191.26 37.6365C191.26 38.1118 191.088 38.4847 190.744 38.7553C190.401 39.0258 189.927 39.1611 189.322 39.1611C188.718 39.1611 188.223 39.0673 187.838 38.8796V38.0533C188.082 38.1679 188.34 38.2581 188.613 38.3239C188.888 38.3897 189.144 38.4226 189.381 38.4226C189.727 38.4226 189.982 38.3568 190.145 38.2252C190.311 38.0935 190.393 37.9168 190.393 37.695C190.393 37.4952 190.318 37.3258 190.167 37.1868C190.016 37.0479 189.704 36.8834 189.231 36.6933C188.743 36.4958 188.4 36.2704 188.2 36.0169C188 35.7634 187.9 35.4587 187.9 35.1029C187.9 34.6568 188.058 34.3058 188.375 34.0499C188.692 33.794 189.118 33.666 189.651 33.666C190.163 33.666 190.673 33.7781 191.18 34.0024L190.902 34.7153C190.426 34.5154 190.002 34.4155 189.629 34.4155C189.347 34.4155 189.132 34.4777 188.986 34.602C188.84 34.7238 188.767 34.8859 188.767 35.0882C188.767 35.2272 188.796 35.3466 188.854 35.4465C188.913 35.544 189.009 35.6366 189.143 35.7244C189.277 35.8121 189.518 35.9279 189.867 36.0717C190.259 36.235 190.547 36.3874 190.73 36.5287C190.913 36.6701 191.047 36.8297 191.132 37.0077C191.217 37.1856 191.26 37.3952 191.26 37.6365V37.6365Z" fill="#2F2F2F"/>
<path d="M197.271 39.0884H194.247V33.7432H197.271V34.4817H195.121V35.9368H197.135V36.668H195.121V38.3462H197.271V39.0884Z" fill="#2F2F2F"/>
<path d="M202.619 33.7432V37.2018C202.619 37.5967 202.534 37.9428 202.363 38.2401C202.195 38.5351 201.95 38.763 201.628 38.9238C201.309 39.0823 200.926 39.1615 200.48 39.1615C199.817 39.1615 199.302 38.986 198.934 38.635C198.566 38.284 198.382 37.8014 198.382 37.1872V33.7432H199.259V37.125C199.259 37.5662 199.362 37.8916 199.566 38.1012C199.771 38.3108 200.086 38.4156 200.51 38.4156C201.334 38.4156 201.745 37.983 201.745 37.1177V33.7432H202.619Z" fill="#2F2F2F"/>
<path d="M204.861 36.2293H205.468C205.875 36.2293 206.17 36.1537 206.353 36.0026C206.536 35.8515 206.627 35.6273 206.627 35.3299C206.627 35.0277 206.528 34.8107 206.331 34.6791C206.133 34.5475 205.836 34.4817 205.439 34.4817H204.861V36.2293ZM204.861 36.9532V39.0884H203.987V33.7432H205.497C206.187 33.7432 206.698 33.8723 207.029 34.1307C207.361 34.3891 207.526 34.7791 207.526 35.3007C207.526 35.9661 207.18 36.4401 206.488 36.7229L207.998 39.0884H207.004L205.724 36.9532H204.861Z" fill="#2F2F2F"/>
<path d="M213.515 36.4076C213.515 37.2777 213.297 37.9541 212.86 38.4367C212.426 38.9193 211.811 39.1606 211.014 39.1606C210.207 39.1606 209.587 38.9217 209.153 38.444C208.722 37.9639 208.506 37.2826 208.506 36.4003C208.506 35.5179 208.723 34.8403 209.157 34.3675C209.593 33.8946 210.214 33.6582 211.021 33.6582C211.816 33.6582 212.43 33.8983 212.864 34.3785C213.298 34.8586 213.515 35.535 213.515 36.4076V36.4076ZM209.435 36.4076C209.435 37.0657 209.567 37.5653 209.833 37.9066C210.099 38.2454 210.492 38.4148 211.014 38.4148C211.533 38.4148 211.924 38.2466 212.188 37.9102C212.453 37.5739 212.586 37.073 212.586 36.4076C212.586 35.7519 212.454 35.2547 212.191 34.9159C211.93 34.5771 211.54 34.4077 211.021 34.4077C210.497 34.4077 210.101 34.5771 209.833 34.9159C209.567 35.2547 209.435 35.7519 209.435 36.4076Z" fill="#2F2F2F"/>
<path d="M218.202 35.3592C218.202 35.9173 218.019 36.3451 217.654 36.6424C217.288 36.9398 216.768 37.0885 216.093 37.0885H215.537V39.0884H214.663V33.7432H216.202C216.87 33.7432 217.37 33.8797 217.701 34.1526C218.035 34.4256 218.202 34.8278 218.202 35.3592V35.3592ZM215.537 36.3536H216.001C216.45 36.3536 216.779 36.2756 216.988 36.1196C217.198 35.9636 217.303 35.7199 217.303 35.3884C217.303 35.0813 217.209 34.8522 217.021 34.7011C216.834 34.5499 216.541 34.4744 216.144 34.4744H215.537V36.3536Z" fill="#2F2F2F"/>
<path d="M222.293 39.0884H219.27V33.7432H222.293V34.4817H220.143V35.9368H222.158V36.668H220.143V38.3462H222.293V39.0884Z" fill="#2F2F2F"/>
<path d="M155.901 3.06641H155.589V46.7444H155.901V3.06641Z" fill="#2F2F2F"/>
<path d="M69.789 46.7462L68.3141 41.9043H60.8983L59.4235 46.7462H54.7764L61.9557 26.3213H67.2289L74.4361 46.7462H69.789ZM67.2845 38.2868C65.921 33.8995 65.1512 31.4182 64.9749 30.8432C64.808 30.2681 64.6874 29.8136 64.6132 29.4796C64.3071 30.6669 63.4305 33.6026 61.9835 38.2868H67.2845Z" fill="#2F2F2F"/>
<path d="M93.8585 36.3812C93.8585 39.7297 92.9031 42.2944 90.9923 44.0753C89.0908 45.8563 86.3406 46.7467 82.7416 46.7467H76.9814V26.4053H83.3677C86.6884 26.4053 89.267 27.2818 91.1036 29.0349C92.9402 30.788 93.8585 33.2368 93.8585 36.3812ZM89.3783 36.4925C89.3783 32.1237 87.449 29.9393 83.5903 29.9393H81.2946V43.1849H83.1451C87.3006 43.1849 89.3783 40.9541 89.3783 36.4925V36.4925Z" fill="#2F2F2F"/>
<path d="M109.965 46.7462L108.49 41.9043H101.074L99.5992 46.7462H94.9521L102.131 26.3213H107.405L114.612 46.7462H109.965ZM107.46 38.2868C106.097 33.8995 105.327 31.4182 105.151 30.8432C104.984 30.2681 104.863 29.8136 104.789 29.4796C104.483 30.6669 103.606 33.6026 102.159 38.2868H107.46Z" fill="#2F2F2F"/>
<path d="M121.477 35.9777H122.896C124.223 35.9777 125.215 35.718 125.874 35.1986C126.532 34.6699 126.862 33.9046 126.862 32.9029C126.862 31.8918 126.583 31.1451 126.027 30.6628C125.48 30.1805 124.617 29.9393 123.439 29.9393H121.477V35.9777ZM131.217 32.7498C131.217 34.9388 130.53 36.6131 129.157 37.7726C127.794 38.932 125.851 39.5117 123.328 39.5117H121.477V46.7467H117.164V26.4053H123.662C126.129 26.4053 128.003 26.9386 129.283 28.0053C130.572 29.0627 131.217 30.6442 131.217 32.7498V32.7498Z" fill="#2F2F2F"/>
<path d="M142.932 46.7467H138.618V29.9949H133.095V26.4053H148.455V29.9949H142.932V46.7467Z" fill="#2F2F2F"/>
<path d="M63.1366 7.03388C61.7148 7.03388 60.6139 7.57011 59.834 8.64256C59.054 9.70689 58.664 11.1937 58.664 13.103C58.664 17.0759 60.1549 19.0624 63.1366 19.0624C64.3878 19.0624 65.9031 18.7496 67.6823 18.124V21.2926C66.2199 21.902 64.5869 22.2066 62.7832 22.2066C60.1914 22.2066 58.209 21.4226 56.836 19.8546C55.4629 18.2784 54.7764 16.0197 54.7764 13.0786C54.7764 11.2262 55.1135 9.60533 55.7879 8.21601C56.4622 6.81858 57.4291 5.75019 58.6884 5.01085C59.9558 4.26338 61.4386 3.88965 63.1366 3.88965C64.8672 3.88965 66.6058 4.30807 68.3526 5.1449L67.1339 8.21601C66.4677 7.89916 65.7974 7.62292 65.1231 7.3873C64.4487 7.15169 63.7866 7.03388 63.1366 7.03388V7.03388Z" fill="#2F2F2F"/>
<path d="M74.885 21.9629H71.168V3H74.885V21.9629Z" fill="#2F2F2F"/>
<path d="M78.6143 4.81586C78.6143 3.60529 79.2886 3 80.6373 3C81.986 3 82.6603 3.60529 82.6603 4.81586C82.6603 5.39271 82.4897 5.84362 82.1485 6.1686C81.8154 6.48546 81.3116 6.6439 80.6373 6.6439C79.2886 6.6439 78.6143 6.03455 78.6143 4.81586V4.81586ZM82.4897 21.9629H78.7727V8.33788H82.4897V21.9629Z" fill="#2F2F2F"/>
<path d="M98.5771 21.963H94.86V14.0049C94.86 13.0218 94.6935 12.2865 94.3604 11.7991C94.0354 11.3035 93.5195 11.0557 92.8126 11.0557C91.8621 11.0557 91.1715 11.405 90.7409 12.1037C90.3102 12.8024 90.0949 13.9521 90.0949 15.5526V21.963H86.3779V8.33796H89.2175L89.7172 10.0807H89.9243C90.2899 9.4551 90.818 8.96762 91.5086 8.61826C92.1992 8.26078 92.9914 8.08203 93.8851 8.08203C95.9244 8.08203 97.3056 8.74825 98.0287 10.0807H98.3577C98.7233 9.44697 99.2595 8.95543 99.9664 8.60607C100.681 8.25671 101.486 8.08203 102.379 8.08203C103.923 8.08203 105.089 8.48014 105.877 9.27635C106.673 10.0644 107.071 11.3319 107.071 13.0787V21.963H103.342V14.0049C103.342 13.0218 103.176 12.2865 102.842 11.7991C102.518 11.3035 102.002 11.0557 101.295 11.0557C100.385 11.0557 99.7023 11.3806 99.2473 12.0306C98.8005 12.6806 98.5771 13.7124 98.5771 15.1261V21.963Z" fill="#2F2F2F"/>
<path d="M119.551 21.962L118.832 20.1095H118.734C118.109 20.8976 117.463 21.446 116.796 21.7548C116.138 22.0554 115.277 22.2057 114.213 22.2057C112.905 22.2057 111.873 21.832 111.117 21.0845C110.37 20.337 109.996 19.2727 109.996 17.8915C109.996 16.4453 110.5 15.381 111.507 14.6985C112.523 14.0079 114.05 13.6261 116.09 13.553L118.454 13.4798V12.8827C118.454 11.5015 117.747 10.8109 116.333 10.8109C115.245 10.8109 113.965 11.1399 112.494 11.798L111.264 9.28752C112.832 8.46693 114.57 8.05664 116.48 8.05664C118.308 8.05664 119.709 8.45475 120.684 9.25096C121.659 10.0472 122.146 11.2577 122.146 12.8827V21.962H119.551ZM118.454 15.6491L117.016 15.6978C115.935 15.7303 115.131 15.9253 114.603 16.2828C114.075 16.6403 113.811 17.1847 113.811 17.9159C113.811 18.964 114.412 19.488 115.614 19.488C116.475 19.488 117.162 19.2402 117.674 18.7446C118.194 18.249 118.454 17.5909 118.454 16.7703V15.6491Z" fill="#2F2F2F"/>
<path d="M131.699 19.2453C132.349 19.2453 133.129 19.1031 134.039 18.8188V21.5852C133.113 21.9996 131.975 22.2067 130.627 22.2067C129.14 22.2067 128.055 21.833 127.373 21.0855C126.699 20.33 126.361 19.2006 126.361 17.6976V11.1288H124.582V9.55669L126.629 8.31361L127.702 5.4375H130.078V8.33799H133.893V11.1288H130.078V17.6976C130.078 18.2257 130.225 18.6157 130.517 18.8675C130.818 19.1194 131.212 19.2453 131.699 19.2453V19.2453Z" fill="#2F2F2F"/>
<path d="M142.424 10.7266C141.636 10.7266 141.019 10.9785 140.572 11.4822C140.125 11.9778 139.869 12.6846 139.804 13.6027H145.02C145.004 12.6846 144.764 11.9778 144.301 11.4822C143.838 10.9785 143.212 10.7266 142.424 10.7266V10.7266ZM142.948 22.2067C140.755 22.2067 139.04 21.6014 137.806 20.3909C136.571 19.1803 135.953 17.466 135.953 15.248C135.953 12.9649 136.522 11.2019 137.659 9.95882C138.805 8.70763 140.385 8.08203 142.4 8.08203C144.326 8.08203 145.825 8.63044 146.897 9.72727C147.969 10.8241 148.506 12.3393 148.506 14.273V16.0767H139.719C139.76 17.1329 140.072 17.9575 140.657 18.5506C141.242 19.1437 142.063 19.4403 143.119 19.4403C143.94 19.4403 144.716 19.355 145.447 19.1843C146.178 19.0137 146.942 18.7416 147.738 18.3678V21.2439C147.088 21.5689 146.393 21.8086 145.654 21.963C144.915 22.1255 144.013 22.2067 142.948 22.2067V22.2067Z" fill="#2F2F2F"/>
<path d="M17.2506 12.1895C19.8613 12.1206 21.2091 11.0121 21.4793 8.96042C21.7495 6.90873 20.2774 5.15614 18.2122 4.88781C14.6016 4.41872 11.6455 7.94344 9.83301 11.747C13.0965 10.868 14.7499 12.2555 17.2506 12.1895Z" fill="#005C96"/>
<path d="M11.2381 19.9347C13.2514 18.2725 13.6209 16.5695 12.5529 14.7876C11.485 13.0056 9.2314 12.5322 7.43726 13.593C4.30066 15.4473 4.17274 20.0434 5.11966 24.1547C7.14134 21.4527 9.30976 21.5268 11.2381 19.9347Z" fill="#005C96"/>
<path d="M26.795 9.80896C28.8914 11.3666 30.6449 11.327 32.1411 9.88055C33.6373 8.43409 33.5761 6.14716 32.1197 4.66115C29.5737 2.06326 25.0435 3.00983 21.2383 4.88171C24.3548 6.20532 24.7871 8.31707 26.795 9.80896Z" fill="#005C96"/>
<path d="M25.5935 46.7459C37.7905 46.7459 47.6781 36.9256 47.6781 24.8115C47.6781 19.1786 45.5402 14.0416 42.0262 10.1572C44.8436 27.0748 27.4924 23.6611 16.7635 26.9616C8.18033 29.602 8.18401 36.4566 9.2221 39.5622C30.961 48.0266 40.6014 34.9709 42.741 27.3766C42.1181 41.846 26.0366 45.4489 18.0737 45.4416C20.4208 46.2856 22.9531 46.7459 25.5935 46.7459Z" fill="#8A9C3A"/>
<path d="M40.2319 8.62791C38.6182 7.58822 36.545 6.89234 34.4736 6.48633C35.4953 8.29197 35.528 9.71975 35.5599 11.1096C35.5798 11.9787 35.5994 12.8329 35.8603 13.7554C36.5682 16.2588 37.9833 17.288 40.0569 17.0455C40.1383 17.036 40.2186 17.024 40.2977 17.0096C40.8462 15.4167 41.0088 13.2928 40.5276 10.4035L40.2319 8.62791Z" fill="#005C96"/>
<path d="M11.4384 27.9524C11.3534 26.4472 10.567 25.4444 9.13544 24.8819C7.19392 24.1189 5.1185 25.1112 4.35029 27.0395C3.25734 29.783 4.85883 32.7553 7.25997 35.2118C7.36694 34.342 7.58016 33.4417 7.93357 32.5454C8.59155 30.8766 9.71256 29.2814 11.4384 27.9524Z" fill="#005C96"/>
</svg>
