<svg width="214" height="50" viewBox="0 0 214 50" fill="none" xmlns="http://www.w3.org/2000/svg">
<path d="M144.309 16.04C144.309 16.4503 144.16 16.7722 143.864 17.0058C143.567 17.2393 143.158 17.3561 142.636 17.3561C142.114 17.3561 141.687 17.2751 141.354 17.1131V16.3998C141.565 16.4987 141.788 16.5765 142.024 16.6333C142.261 16.6902 142.482 16.7186 142.686 16.7186C142.985 16.7186 143.205 16.6618 143.346 16.5481C143.489 16.4345 143.561 16.282 143.561 16.0905C143.561 15.9179 143.495 15.7717 143.365 15.6518C143.235 15.5318 142.965 15.3898 142.557 15.2257C142.136 15.0552 141.84 14.8606 141.667 14.6418C141.494 14.4229 141.408 14.1599 141.408 13.8527C141.408 13.4676 141.545 13.1646 141.818 12.9437C142.092 12.7228 142.459 12.6123 142.92 12.6123C143.362 12.6123 143.802 12.7091 144.239 12.9027L143.999 13.5181C143.589 13.3456 143.223 13.2593 142.901 13.2593C142.657 13.2593 142.472 13.313 142.346 13.4203C142.219 13.5255 142.156 13.6654 142.156 13.8401C142.156 13.96 142.181 14.0631 142.232 14.1494C142.282 14.2336 142.366 14.3135 142.481 14.3893C142.597 14.465 142.805 14.565 143.106 14.6891C143.445 14.8301 143.693 14.9616 143.851 15.0836C144.009 15.2057 144.125 15.3435 144.198 15.4971C144.272 15.6507 144.309 15.8317 144.309 16.04V16.04Z" fill="#2F2F2F"/>
<path d="M148.848 17.2931H148.091V15.2132H145.963V17.2931H145.209V12.6787H145.963V14.5661H148.091V12.6787H148.848V17.2931Z" fill="#2F2F2F"/>
<path d="M152.932 17.2925L152.471 16.0111H150.707L150.255 17.2925H149.46L151.186 12.6592H152.007L153.733 17.2925H152.932ZM152.272 15.3609L151.84 14.1047C151.808 14.0206 151.764 13.888 151.707 13.707C151.652 13.5261 151.615 13.3935 151.594 13.3094C151.537 13.5682 151.454 13.8512 151.344 14.1584L150.928 15.3609H152.272Z" fill="#2F2F2F"/>
<path d="M155.104 14.825H155.628C155.979 14.825 156.234 14.7597 156.392 14.6293C156.549 14.4988 156.628 14.3052 156.628 14.0485C156.628 13.7876 156.543 13.6003 156.373 13.4867C156.202 13.3731 155.946 13.3163 155.603 13.3163H155.104V14.825ZM155.104 15.4499V17.2931H154.35V12.6787H155.653C156.249 12.6787 156.689 12.7902 156.976 13.0133C157.262 13.2363 157.405 13.573 157.405 14.0233C157.405 14.5977 157.106 15.007 156.508 15.251L157.812 17.2931H156.953L155.849 15.4499H155.104Z" fill="#2F2F2F"/>
<path d="M158.479 17.2931V12.6787H159.233V17.2931H158.479Z" fill="#2F2F2F"/>
<path d="M164.291 17.2931H163.366L161.097 13.6161H161.071L161.087 13.8213C161.116 14.2126 161.131 14.5703 161.131 14.8944V17.2931H160.446V12.6787H161.362L163.625 16.3368H163.644C163.639 16.2884 163.631 16.1127 163.618 15.8097C163.606 15.5046 163.599 15.2668 163.599 15.0964V12.6787H164.291L164.291 17.2931Z" fill="#2F2F2F"/>
<path d="M167.399 14.7891H169.097V17.1058C168.819 17.1963 168.552 17.2605 168.295 17.2983C168.041 17.3362 167.765 17.3552 167.468 17.3552C166.77 17.3552 166.231 17.1489 165.852 16.7365C165.474 16.322 165.284 15.7381 165.284 14.9848C165.284 14.242 165.498 13.6613 165.925 13.2426C166.352 12.8217 166.94 12.6113 167.689 12.6113C168.171 12.6113 168.628 12.7039 169.059 12.8891L168.794 13.5172C168.419 13.3446 168.045 13.2584 167.67 13.2584C167.178 13.2584 166.789 13.413 166.502 13.7223C166.216 14.0316 166.073 14.4546 166.073 14.9911C166.073 15.555 166.202 15.9843 166.458 16.2789C166.717 16.5714 167.088 16.7176 167.572 16.7176C167.817 16.7176 168.077 16.6871 168.355 16.6261V15.4362H167.399V14.7891Z" fill="#2F2F2F"/>
<path d="M174.749 17.2925L174.288 16.0111H172.524L172.073 17.2925H171.277L173.004 12.6592H173.824L175.551 17.2925H174.749ZM174.09 15.3609L173.657 14.1047C173.626 14.0206 173.581 13.888 173.525 13.707C173.47 13.5261 173.432 13.3935 173.411 13.3094C173.354 13.5682 173.271 13.8512 173.162 14.1584L172.745 15.3609H174.09Z" fill="#2F2F2F"/>
<path d="M179.918 14.9417C179.918 15.7034 179.706 16.2863 179.283 16.6903C178.86 17.0922 178.251 17.2931 177.456 17.2931H176.165V12.6787H177.592C178.326 12.6787 178.897 12.8765 179.306 13.2721C179.714 13.6677 179.918 14.2242 179.918 14.9417ZM179.122 14.967C179.122 13.8623 178.606 13.31 177.573 13.31H176.919V16.6587H177.456C178.567 16.6587 179.122 16.0948 179.122 14.967Z" fill="#2F2F2F"/>
<path d="M183.647 17.2925L183.186 16.0111H181.422L180.97 17.2925H180.175L181.901 12.6592H182.722L184.448 17.2925H183.647ZM182.987 15.3609L182.555 14.1047C182.523 14.0206 182.479 13.888 182.422 13.707C182.367 13.5261 182.329 13.3935 182.308 13.3094C182.252 13.5682 182.168 13.8512 182.059 14.1584L181.642 15.3609H182.987Z" fill="#2F2F2F"/>
<path d="M188.123 14.0738C188.123 14.5556 187.965 14.9249 187.649 15.1816C187.334 15.4383 186.884 15.5667 186.301 15.5667H185.822V17.2931H185.067V12.6787H186.396C186.973 12.6787 187.404 12.7965 187.69 13.0322C187.978 13.2679 188.123 13.6151 188.123 14.0738V14.0738ZM185.822 14.9323H186.223C186.61 14.9323 186.894 14.8649 187.075 14.7303C187.256 14.5956 187.346 14.3852 187.346 14.099C187.346 13.8339 187.265 13.6361 187.103 13.5056C186.941 13.3752 186.689 13.31 186.346 13.31H185.822V14.9323Z" fill="#2F2F2F"/>
<path d="M190.637 17.2931H189.883V13.3257H188.525V12.6787H191.994V13.3257H190.637V17.2931Z" fill="#2F2F2F"/>
<path d="M195.114 17.2925L194.654 16.0111H192.889L192.438 17.2925H191.643L193.369 12.6592H194.19L195.916 17.2925H195.114ZM194.455 15.3609L194.022 14.1047C193.991 14.0206 193.947 13.888 193.89 13.707C193.835 13.5261 193.797 13.3935 193.776 13.3094C193.719 13.5682 193.636 13.8512 193.527 14.1584L193.11 15.3609H194.455Z" fill="#2F2F2F"/>
<path d="M197.672 17.2931H196.918V13.3257H195.561V12.6787H199.029V13.3257H197.672V17.2931Z" fill="#2F2F2F"/>
<path d="M199.737 17.2931V12.6787H200.492V17.2931H199.737Z" fill="#2F2F2F"/>
<path d="M205.802 14.979C205.802 15.7301 205.613 16.314 205.237 16.7307C204.862 17.1473 204.331 17.3556 203.643 17.3556C202.946 17.3556 202.411 17.1494 202.036 16.737C201.664 16.3225 201.478 15.7344 201.478 14.9726C201.478 14.2109 201.665 13.626 202.039 13.2178C202.416 12.8096 202.953 12.6055 203.649 12.6055C204.335 12.6055 204.865 12.8127 205.24 13.2272C205.614 13.6418 205.802 14.2257 205.802 14.979V14.979ZM202.279 14.979C202.279 15.5471 202.394 15.9784 202.623 16.273C202.853 16.5655 203.192 16.7117 203.643 16.7117C204.091 16.7117 204.429 16.5665 204.656 16.2762C204.885 15.9858 205 15.5534 205 14.979C205 14.4129 204.886 13.9837 204.659 13.6912C204.434 13.3987 204.097 13.2525 203.649 13.2525C203.197 13.2525 202.855 13.3987 202.623 13.6912C202.394 13.9837 202.279 14.4129 202.279 14.979Z" fill="#2F2F2F"/>
<path d="M210.636 17.2931H209.712L207.442 13.6161H207.417L207.433 13.8213C207.462 14.2126 207.477 14.5703 207.477 14.8944V17.2931H206.792V12.6787H207.707L209.97 16.3368H209.989C209.985 16.2884 209.977 16.1127 209.964 15.8097C209.951 15.5046 209.945 15.2668 209.945 15.0964V12.6787H210.636L210.636 17.2931Z" fill="#2F2F2F"/>
<path d="M141.355 27.2228V22.6084H142.11V27.2228H141.355Z" fill="#2F2F2F"/>
<path d="M147.17 27.2228H146.245L143.975 23.5458H143.95L143.966 23.751C143.995 24.1423 144.01 24.5 144.01 24.8241V27.2228H143.325V22.6084H144.241L146.504 26.2665H146.522C146.518 26.2181 146.51 26.0424 146.497 25.7394C146.485 25.4343 146.478 25.1965 146.478 25.0261V22.6084H147.169L147.17 27.2228Z" fill="#2F2F2F"/>
<path d="M149.137 27.2228H148.389V22.6084H150.993V23.246H149.137V24.6884H150.876V25.3291H149.137V27.2228Z" fill="#2F2F2F"/>
<path d="M155.931 24.9086C155.931 25.6598 155.743 26.2437 155.366 26.6604C154.992 27.077 154.461 27.2853 153.773 27.2853C153.076 27.2853 152.541 27.0791 152.166 26.6667C151.794 26.2522 151.607 25.664 151.607 24.9023C151.607 24.1406 151.795 23.5557 152.169 23.1475C152.546 22.7393 153.082 22.5352 153.779 22.5352C154.465 22.5352 154.995 22.7424 155.37 23.1569C155.744 23.5715 155.931 24.1554 155.931 24.9086ZM152.409 24.9086C152.409 25.4768 152.524 25.9081 152.753 26.2027C152.982 26.4952 153.322 26.6414 153.773 26.6414C154.221 26.6414 154.558 26.4962 154.786 26.2059C155.015 25.9155 155.13 25.4831 155.13 24.9086C155.13 24.3426 155.016 23.9134 154.789 23.6209C154.564 23.3284 154.227 23.1822 153.779 23.1822C153.327 23.1822 152.985 23.3284 152.753 23.6209C152.524 23.9134 152.409 24.3426 152.409 24.9086Z" fill="#2F2F2F"/>
<path d="M157.677 24.7546H158.201C158.553 24.7546 158.807 24.6894 158.965 24.5589C159.123 24.4285 159.202 24.2349 159.202 23.9782C159.202 23.7173 159.116 23.53 158.946 23.4164C158.776 23.3028 158.519 23.246 158.176 23.246H157.677V24.7546ZM157.677 25.3796V27.2228H156.923V22.6084H158.226C158.822 22.6084 159.263 22.7199 159.549 22.943C159.835 23.166 159.978 23.5027 159.978 23.953C159.978 24.5274 159.679 24.9366 159.082 25.1807L160.385 27.2228H159.527L158.422 25.3796H157.677Z" fill="#2F2F2F"/>
<path d="M163.045 27.2228L161.706 23.3691H161.681C161.717 23.9414 161.735 24.4779 161.735 24.9787V27.2228H161.05V22.6084H162.113L163.395 26.2791H163.414L164.733 22.6084H165.8V27.2228H165.074V24.9408C165.074 24.7115 165.079 24.4127 165.09 24.0445C165.102 23.6763 165.113 23.4532 165.121 23.3754H165.096L163.711 27.2228H163.045Z" fill="#2F2F2F"/>
<path d="M169.885 27.2222L169.424 25.9408H167.66L167.208 27.2222H166.413L168.14 22.5889H168.96L170.687 27.2222H169.885ZM169.225 25.2906L168.793 24.0344C168.761 23.9503 168.717 23.8177 168.66 23.6367C168.606 23.4558 168.568 23.3232 168.547 23.2391C168.49 23.4979 168.407 23.7809 168.297 24.0881L167.881 25.2906H169.225Z" fill="#2F2F2F"/>
<path d="M172.443 27.2228H171.688V23.2554H170.331V22.6084H173.8V23.2554H172.443V27.2228Z" fill="#2F2F2F"/>
<path d="M174.509 27.2228V22.6084H175.263V27.2228H174.509Z" fill="#2F2F2F"/>
<path d="M180.576 24.9086C180.576 25.6598 180.388 26.2437 180.011 26.6604C179.636 27.077 179.105 27.2853 178.417 27.2853C177.721 27.2853 177.185 27.0791 176.811 26.6667C176.438 26.2522 176.252 25.664 176.252 24.9023C176.252 24.1406 176.439 23.5557 176.814 23.1475C177.19 22.7393 177.727 22.5352 178.423 22.5352C179.109 22.5352 179.64 22.7424 180.014 23.1569C180.389 23.5715 180.576 24.1554 180.576 24.9086ZM177.054 24.9086C177.054 25.4768 177.168 25.9081 177.398 26.2027C177.627 26.4952 177.967 26.6414 178.417 26.6414C178.865 26.6414 179.203 26.4962 179.43 26.2059C179.66 25.9155 179.774 25.4831 179.774 24.9086C179.774 24.3426 179.661 23.9134 179.433 23.6209C179.208 23.3284 178.872 23.1822 178.423 23.1822C177.971 23.1822 177.629 23.3284 177.398 23.6209C177.168 23.9134 177.054 24.3426 177.054 24.9086Z" fill="#2F2F2F"/>
<path d="M185.41 27.2228H184.485L182.216 23.5458H182.19L182.206 23.751C182.236 24.1423 182.25 24.5 182.25 24.8241V27.2228H181.565V22.6084H182.481L184.744 26.2665H184.763C184.759 26.2181 184.75 26.0424 184.737 25.7394C184.725 25.4343 184.719 25.1965 184.719 25.0261V22.6084H185.41L185.41 27.2228Z" fill="#2F2F2F"/>
<path d="M144.827 37.1548L144.367 35.8734H142.602L142.151 37.1548H141.355L143.082 32.5215H143.903L145.629 37.1548H144.827ZM144.168 35.2232L143.735 33.967C143.704 33.8829 143.66 33.7503 143.603 33.5694C143.548 33.3884 143.51 33.2558 143.489 33.1717C143.432 33.4305 143.349 33.7135 143.24 34.0207L142.823 35.2232H144.168Z" fill="#2F2F2F"/>
<path d="M148.081 33.1207C147.648 33.1207 147.307 33.2743 147.058 33.5815C146.81 33.8887 146.686 34.3127 146.686 34.8534C146.686 35.4194 146.805 35.8476 147.043 36.138C147.283 36.4284 147.629 36.5736 148.081 36.5736C148.277 36.5736 148.466 36.5546 148.649 36.5168C148.832 36.4768 149.023 36.4263 149.22 36.3653V37.0123C148.859 37.1491 148.448 37.2175 147.99 37.2175C147.314 37.2175 146.795 37.0133 146.433 36.6051C146.072 36.1948 145.891 35.6088 145.891 34.8471C145.891 34.3674 145.978 33.9476 146.153 33.5878C146.329 33.228 146.584 32.9523 146.916 32.7609C147.249 32.5694 147.639 32.4736 148.087 32.4736C148.559 32.4736 148.994 32.5725 149.394 32.7703L149.123 33.3984C148.967 33.3248 148.802 33.2606 148.627 33.2059C148.455 33.1491 148.273 33.1207 148.081 33.1207V33.1207Z" fill="#2F2F2F"/>
<path d="M150.977 34.6863H151.501C151.852 34.6863 152.107 34.621 152.265 34.4906C152.423 34.3601 152.501 34.1666 152.501 33.9098C152.501 33.6489 152.416 33.4617 152.246 33.348C152.075 33.2344 151.819 33.1776 151.476 33.1776H150.977V34.6863ZM150.977 35.3112V37.1545H150.223V32.54H151.526C152.122 32.54 152.562 32.6516 152.849 32.8746C153.135 33.0976 153.278 33.4343 153.278 33.8846C153.278 34.459 152.979 34.8683 152.382 35.1124L153.685 37.1545H152.827L151.722 35.3112H150.977Z" fill="#2F2F2F"/>
<path d="M158.448 34.8403C158.448 35.5915 158.26 36.1754 157.883 36.592C157.509 37.0086 156.977 37.2169 156.289 37.2169C155.593 37.2169 155.057 37.0107 154.683 36.5983C154.31 36.1838 154.124 35.5957 154.124 34.834C154.124 34.0723 154.311 33.4873 154.686 33.0791C155.062 32.6709 155.599 32.4668 156.296 32.4668C156.981 32.4668 157.512 32.6741 157.886 33.0886C158.261 33.5031 158.448 34.087 158.448 34.8403V34.8403ZM154.926 34.8403C154.926 35.4084 155.04 35.8398 155.27 36.1343C155.499 36.4268 155.839 36.5731 156.289 36.5731C156.737 36.5731 157.075 36.4279 157.302 36.1375C157.532 35.8471 157.646 35.4147 157.646 34.8403C157.646 34.2743 157.533 33.845 157.305 33.5525C157.08 33.2601 156.744 33.1138 156.296 33.1138C155.843 33.1138 155.501 33.2601 155.27 33.5525C155.04 33.845 154.926 34.2743 154.926 34.8403Z" fill="#2F2F2F"/>
<path d="M162.1 35.9013C162.1 36.3116 161.951 36.6335 161.655 36.8671C161.358 37.1007 160.949 37.2175 160.427 37.2175C159.905 37.2175 159.478 37.1364 159.146 36.9744V36.2611C159.356 36.36 159.579 36.4379 159.815 36.4947C160.052 36.5515 160.273 36.5799 160.477 36.5799C160.776 36.5799 160.996 36.5231 161.137 36.4095C161.28 36.2958 161.352 36.1433 161.352 35.9518C161.352 35.7793 161.286 35.633 161.156 35.5131C161.026 35.3931 160.756 35.2511 160.348 35.087C159.927 34.9166 159.631 34.7219 159.458 34.5031C159.285 34.2843 159.199 34.0212 159.199 33.714C159.199 33.329 159.336 33.026 159.609 32.805C159.883 32.5841 160.25 32.4736 160.711 32.4736C161.153 32.4736 161.593 32.5704 162.03 32.764L161.79 33.3795C161.38 33.2069 161.014 33.1207 160.692 33.1207C160.448 33.1207 160.263 33.1743 160.137 33.2816C160.01 33.3868 159.947 33.5268 159.947 33.7014C159.947 33.8213 159.972 33.9244 160.023 34.0107C160.073 34.0949 160.157 34.1748 160.272 34.2506C160.388 34.3263 160.596 34.4263 160.897 34.5504C161.236 34.6914 161.484 34.8229 161.642 34.945C161.8 35.067 161.916 35.2048 161.989 35.3584C162.063 35.512 162.1 35.693 162.1 35.9013V35.9013Z" fill="#2F2F2F"/>
<path d="M165.658 35.9013C165.658 36.3116 165.51 36.6335 165.213 36.8671C164.917 37.1007 164.507 37.2175 163.986 37.2175C163.464 37.2175 163.037 37.1364 162.704 36.9744V36.2611C162.915 36.36 163.138 36.4379 163.373 36.4947C163.611 36.5515 163.832 36.5799 164.036 36.5799C164.335 36.5799 164.555 36.5231 164.696 36.4095C164.839 36.2958 164.91 36.1433 164.91 35.9518C164.91 35.7793 164.845 35.633 164.715 35.5131C164.584 35.3931 164.315 35.2511 163.907 35.087C163.486 34.9166 163.189 34.7219 163.017 34.5031C162.844 34.2843 162.758 34.0212 162.758 33.714C162.758 33.329 162.895 33.026 163.168 32.805C163.442 32.5841 163.809 32.4736 164.27 32.4736C164.711 32.4736 165.151 32.5704 165.589 32.764L165.349 33.3795C164.939 33.2069 164.573 33.1207 164.251 33.1207C164.007 33.1207 163.821 33.1743 163.695 33.2816C163.569 33.3868 163.506 33.5268 163.506 33.7014C163.506 33.8213 163.531 33.9244 163.582 34.0107C163.632 34.0949 163.715 34.1748 163.831 34.2506C163.947 34.3263 164.155 34.4263 164.456 34.5504C164.795 34.6914 165.043 34.8229 165.201 34.945C165.358 35.067 165.474 35.2048 165.548 35.3584C165.622 35.512 165.658 35.693 165.658 35.9013V35.9013Z" fill="#2F2F2F"/>
<path d="M170.848 37.1545H168.237V32.54H170.848V33.1776H168.992V34.4338H170.731V35.065H168.992V36.5137H170.848V37.1545Z" fill="#2F2F2F"/>
<path d="M175.465 32.54V35.5258C175.465 35.8667 175.391 36.1655 175.244 36.4222C175.099 36.6768 174.887 36.8735 174.609 37.0124C174.334 37.1492 174.003 37.2176 173.618 37.2176C173.046 37.2176 172.601 37.0661 172.283 36.7631C171.966 36.4601 171.807 36.0435 171.807 35.5132V32.54H172.564V35.4596C172.564 35.8404 172.653 36.1213 172.829 36.3023C173.006 36.4832 173.277 36.5737 173.644 36.5737C174.355 36.5737 174.71 36.2002 174.71 35.4532V32.54H175.465Z" fill="#2F2F2F"/>
<path d="M177.4 34.6863H177.924C178.275 34.6863 178.53 34.621 178.688 34.4906C178.845 34.3601 178.924 34.1666 178.924 33.9098C178.924 33.6489 178.839 33.4617 178.669 33.348C178.498 33.2344 178.242 33.1776 177.899 33.1776H177.4V34.6863ZM177.4 35.3112V37.1545H176.646V32.54H177.949C178.545 32.54 178.985 32.6516 179.271 32.8746C179.558 33.0976 179.701 33.4343 179.701 33.8846C179.701 34.459 179.402 34.8683 178.804 35.1124L180.108 37.1545H179.249L178.145 35.3112H177.4Z" fill="#2F2F2F"/>
<path d="M184.871 34.8403C184.871 35.5915 184.683 36.1754 184.306 36.592C183.931 37.0086 183.4 37.2169 182.712 37.2169C182.016 37.2169 181.48 37.0107 181.106 36.5983C180.733 36.1838 180.547 35.5957 180.547 34.834C180.547 34.0723 180.734 33.4873 181.109 33.0791C181.485 32.6709 182.022 32.4668 182.718 32.4668C183.404 32.4668 183.935 32.6741 184.309 33.0886C184.684 33.5031 184.871 34.087 184.871 34.8403V34.8403ZM181.349 34.8403C181.349 35.4084 181.463 35.8398 181.693 36.1343C181.922 36.4268 182.262 36.5731 182.712 36.5731C183.16 36.5731 183.498 36.4279 183.725 36.1375C183.955 35.8471 184.069 35.4147 184.069 34.8403C184.069 34.2743 183.956 33.845 183.728 33.5525C183.503 33.2601 183.167 33.1138 182.718 33.1138C182.266 33.1138 181.924 33.2601 181.693 33.5525C181.463 33.845 181.349 34.2743 181.349 34.8403Z" fill="#2F2F2F"/>
<path d="M188.918 33.9351C188.918 34.4169 188.76 34.7862 188.444 35.0429C188.128 35.2996 187.679 35.428 187.096 35.428H186.617V37.1545H185.862V32.54H187.191C187.768 32.54 188.199 32.6579 188.485 32.8935C188.773 33.1292 188.918 33.4764 188.918 33.9351V33.9351ZM186.617 34.7936H187.017C187.405 34.7936 187.689 34.7263 187.87 34.5916C188.051 34.4569 188.141 34.2465 188.141 33.9603C188.141 33.6952 188.06 33.4974 187.898 33.367C187.736 33.2365 187.484 33.1713 187.141 33.1713H186.617V34.7936Z" fill="#2F2F2F"/>
<path d="M192.449 37.1545H189.839V32.54H192.449V33.1776H190.593V34.4338H192.332V35.065H190.593V36.5137H192.449V37.1545Z" fill="#2F2F2F"/>
<path d="M135.134 6.05762H134.864V43.7641H135.134V6.05762Z" fill="#2F2F2F"/>
<path d="M60.7941 43.7653L59.5209 39.5854H53.1189L51.8457 43.7653H47.834L54.0318 26.1328H58.584L64.8058 43.7653H60.7941ZM58.6321 36.4625C57.455 32.6749 56.7904 30.5329 56.6382 30.0365C56.4941 29.54 56.39 29.1476 56.3259 28.8594C56.0617 29.8843 55.305 32.4187 54.0558 36.4625H58.6321Z" fill="#2F2F2F"/>
<path d="M81.5735 34.8171C81.5735 37.7078 80.7488 39.9219 79.0992 41.4593C77.4577 42.9968 75.0835 43.7655 71.9766 43.7655H67.0039V26.2051H72.5171C75.3837 26.2051 77.6098 26.9618 79.1953 28.4752C80.7808 29.9886 81.5735 32.1026 81.5735 34.8171ZM77.7059 34.9132C77.7059 31.1417 76.0404 29.2559 72.7092 29.2559H70.7274V40.6906H72.3249C75.9122 40.6906 77.7059 38.7648 77.7059 34.9132V34.9132Z" fill="#2F2F2F"/>
<path d="M95.4777 43.7653L94.2045 39.5854H87.8025L86.5293 43.7653H82.5176L88.7154 26.1328H93.2676L99.4894 43.7653H95.4777ZM93.3157 36.4625C92.1386 32.6749 91.474 30.5329 91.3218 30.0365C91.1777 29.54 91.0736 29.1476 91.0095 28.8594C90.7453 29.8843 89.9886 32.4187 88.7394 36.4625H93.3157Z" fill="#2F2F2F"/>
<path d="M105.416 34.4688H106.641C107.786 34.4688 108.643 34.2446 109.211 33.7962C109.78 33.3398 110.064 32.6791 110.064 31.8143C110.064 30.9415 109.824 30.2969 109.344 29.8805C108.871 29.4641 108.126 29.2559 107.109 29.2559H105.416V34.4688ZM113.824 31.6822C113.824 33.572 113.231 35.0173 112.046 36.0183C110.869 37.0192 109.191 37.5197 107.013 37.5197H105.416V43.7655H101.692V26.2051H107.302C109.432 26.2051 111.049 26.6655 112.154 27.5864C113.267 28.4992 113.824 29.8645 113.824 31.6822V31.6822Z" fill="#2F2F2F"/>
<path d="M123.937 43.7655H120.214V29.304H115.445V26.2051H128.706V29.304H123.937V43.7655Z" fill="#2F2F2F"/>
<path d="M55.0512 9.48194C53.8238 9.48194 52.8734 9.94485 52.2001 10.8707C51.5268 11.7895 51.1901 13.073 51.1901 14.7213C51.1901 18.1511 52.4772 19.866 55.0512 19.866C56.1314 19.866 57.4395 19.5959 58.9755 19.0559V21.7913C57.713 22.3173 56.3032 22.5803 54.7461 22.5803C52.5087 22.5803 50.7973 21.9035 49.612 20.5498C48.4267 19.1891 47.834 17.2393 47.834 14.7003C47.834 13.1011 48.1251 11.7018 48.7072 10.5025C49.2894 9.29607 50.124 8.37375 51.2112 7.73549C52.3053 7.09022 53.5853 6.76758 55.0512 6.76758C56.5452 6.76758 58.0462 7.12879 59.5541 7.85122L58.5021 10.5025C57.9269 10.2289 57.3483 9.99045 56.7661 9.78704C56.184 9.58364 55.6123 9.48194 55.0512 9.48194V9.48194Z" fill="#2F2F2F"/>
<path d="M65.1932 22.3703H61.9844V6H65.1932V22.3703Z" fill="#2F2F2F"/>
<path d="M68.4131 7.5676C68.4131 6.52253 68.9952 6 70.1595 6C71.3238 6 71.906 6.52253 71.906 7.5676C71.906 8.06558 71.7587 8.45484 71.4641 8.7354C71.1765 9.00894 70.7417 9.14571 70.1595 9.14571C68.9952 9.14571 68.4131 8.61968 68.4131 7.5676V7.5676ZM71.7587 22.3703H68.5499V10.6081H71.7587V22.3703Z" fill="#2F2F2F"/>
<path d="M85.6465 22.3709H82.4377V15.5008C82.4377 14.6521 82.2939 14.0174 82.0063 13.5965C81.7258 13.1687 81.2804 12.9548 80.6702 12.9548C79.8496 12.9548 79.2534 13.2564 78.8817 13.8596C78.5099 14.4627 78.3241 15.4552 78.3241 16.8369V22.3709H75.1152V10.6086H77.5666L77.9979 12.1131H78.1768C78.4924 11.573 78.9483 11.1522 79.5445 10.8506C80.1407 10.542 80.8245 10.3877 81.596 10.3877C83.3565 10.3877 84.5489 10.9628 85.1731 12.1131H85.4572C85.7728 11.566 86.2357 11.1417 86.8459 10.8401C87.4631 10.5385 88.1575 10.3877 88.929 10.3877C90.2617 10.3877 91.2681 10.7314 91.9485 11.4187C92.6358 12.0991 92.9795 13.1932 92.9795 14.7012V22.3709H89.7602V15.5008C89.7602 14.6521 89.6164 14.0174 89.3288 13.5965C89.0483 13.1687 88.6029 12.9548 87.9927 12.9548C87.2071 12.9548 86.618 13.2353 86.2252 13.7964C85.8394 14.3575 85.6465 15.2483 85.6465 16.4687V22.3709Z" fill="#2F2F2F"/>
<path d="M103.752 22.3695L103.131 20.7703H103.047C102.507 21.4506 101.95 21.9241 101.374 22.1906C100.806 22.4501 100.063 22.5799 99.1441 22.5799C98.0149 22.5799 97.1241 22.2572 96.4718 21.612C95.8265 20.9667 95.5039 20.0479 95.5039 18.8555C95.5039 17.607 95.9388 16.6882 96.8085 16.0991C97.6852 15.5029 99.0038 15.1732 100.764 15.1101L102.805 15.047V14.5315C102.805 13.3391 102.195 12.7429 100.975 12.7429C100.035 12.7429 98.9302 13.027 97.6607 13.5951L96.5981 11.4278C97.9517 10.7194 99.4527 10.3652 101.101 10.3652C102.679 10.3652 103.889 10.7089 104.731 11.3963C105.572 12.0836 105.993 13.1287 105.993 14.5315V22.3695H103.752ZM102.805 16.9197L101.564 16.9618C100.631 16.9898 99.9367 17.1581 99.4808 17.4668C99.0249 17.7754 98.7969 18.2453 98.7969 18.8765C98.7969 19.7813 99.3159 20.2337 100.354 20.2337C101.097 20.2337 101.69 20.0198 102.132 19.592C102.581 19.1641 102.805 18.596 102.805 17.8876V16.9197Z" fill="#2F2F2F"/>
<path d="M114.24 20.0245C114.801 20.0245 115.474 19.9018 116.26 19.6563V22.0445C115.46 22.4022 114.478 22.5811 113.314 22.5811C112.03 22.5811 111.094 22.2584 110.505 21.6132C109.923 20.9609 109.632 19.986 109.632 18.6884V13.0177H108.096V11.6605L109.863 10.5874L110.789 8.10449H112.841V10.6084H116.134V13.0177H112.841V18.6884C112.841 19.1443 112.967 19.481 113.219 19.6984C113.479 19.9158 113.819 20.0245 114.24 20.0245V20.0245Z" fill="#2F2F2F"/>
<path d="M123.499 12.6707C122.818 12.6707 122.285 12.8881 121.899 13.323C121.514 13.7508 121.293 14.361 121.237 15.1536H125.74C125.726 14.361 125.519 13.7508 125.119 13.323C124.719 12.8881 124.179 12.6707 123.499 12.6707V12.6707ZM123.951 22.5813C122.057 22.5813 120.577 22.0587 119.511 21.0137C118.445 19.9686 117.912 18.4887 117.912 16.5739C117.912 14.603 118.403 13.081 119.385 12.0079C120.374 10.9278 121.738 10.3877 123.478 10.3877C125.14 10.3877 126.434 10.8611 127.36 11.808C128.286 12.7549 128.749 14.063 128.749 15.7323V17.2893H121.163C121.198 18.2011 121.468 18.913 121.973 19.425C122.478 19.9371 123.187 20.1931 124.098 20.1931C124.807 20.1931 125.477 20.1194 126.108 19.9721C126.739 19.8248 127.398 19.5899 128.086 19.2672V21.7501C127.525 22.0307 126.925 22.2376 126.287 22.3709C125.648 22.5111 124.87 22.5813 123.951 22.5813V22.5813Z" fill="#2F2F2F"/>
<path d="M15.4386 13.9325C17.6924 13.8731 18.8559 12.9161 19.0892 11.1449C19.3225 9.37375 18.0517 7.86077 16.2687 7.62912C13.1518 7.22417 10.5998 10.267 9.03516 13.5505C11.8525 12.7918 13.2799 13.9895 15.4386 13.9325Z" fill="#005C96"/>
<path d="M10.2489 20.6191C11.9869 19.1841 12.3059 17.714 11.384 16.1756C10.462 14.6373 8.51653 14.2286 6.96767 15.1444C4.2599 16.7452 4.14947 20.713 4.96693 24.2621C6.71221 21.9295 8.58417 21.9935 10.2489 20.6191Z" fill="#005C96"/>
<path d="M23.6789 11.8775C25.4886 13.2221 27.0024 13.188 28.294 11.9393C29.5857 10.6906 29.5329 8.71634 28.2756 7.43349C26.0776 5.19077 22.1668 6.00793 18.8818 7.62389C21.5722 8.76655 21.9454 10.5896 23.6789 11.8775Z" fill="#005C96"/>
<path d="M22.641 43.7641C33.1704 43.7641 41.7062 35.2864 41.7062 24.8286C41.7062 19.9657 39.8606 15.531 36.827 12.1777C39.2592 26.7824 24.2803 23.8354 15.0182 26.6847C7.60849 28.9641 7.61167 34.8815 8.50784 37.5626C27.2747 44.8697 35.597 33.5989 37.4441 27.0429C36.9064 39.5341 23.0235 42.6444 16.1493 42.6381C18.1755 43.3667 20.3615 43.7641 22.641 43.7641Z" fill="#8A9C3A"/>
<path d="M35.2786 10.8576C33.8856 9.96003 32.0958 9.35929 30.3076 9.00879C31.1896 10.5676 31.2179 11.8001 31.2454 13C31.2626 13.7502 31.2795 14.4877 31.5047 15.2841C32.1158 17.4452 33.3374 18.3337 35.1276 18.1244C35.1979 18.1162 35.2671 18.1058 35.3354 18.0934C35.8089 16.7182 35.9493 14.8847 35.5339 12.3904L35.2786 10.8576Z" fill="#005C96"/>
<path d="M10.4215 27.5403C10.348 26.2409 9.66919 25.3752 8.43333 24.8896C6.75725 24.2309 4.96558 25.0876 4.3024 26.7523C3.35888 29.1206 4.74141 31.6866 6.81428 33.8073C6.90662 33.0564 7.09069 32.2791 7.39578 31.5054C7.9638 30.0648 8.93155 28.6876 10.4215 27.5403Z" fill="#005C96"/>
</svg>
