<svg xmlns="http://www.w3.org/2000/svg" viewBox="0 0 120 40"><defs><style>.a{fill:#f4cf00;}.b{fill:#3c8000;}.c{fill:#666;}</style></defs><title>BISE Logo</title><polygon class="a" points="13.352 31.649 12.804 29.953 12.255 31.649 10.448 31.649 11.907 32.655 11.359 34.398 12.804 33.303 14.252 34.401 13.699 32.695 15.094 31.649 13.352 31.649"/><polygon class="a" points="20.543 33.533 19.995 31.888 19.446 33.535 17.652 33.585 19.098 34.582 18.551 36.273 19.993 35.228 21.443 36.328 20.89 34.619 22.273 33.533 20.543 33.533"/><polygon class="a" points="27.695 31.649 27.195 29.953 26.597 31.649 24.84 31.649 26.248 32.654 25.702 34.39 27.185 33.302 28.648 34.411 28.041 32.693 29.434 31.649 27.695 31.649"/><polygon class="a" points="8.089 26.384 7.59 24.74 6.992 26.384 5.248 26.384 6.642 27.429 6.097 29.116 7.579 28.079 9.042 29.189 8.435 27.47 9.817 26.384 8.089 26.384"/><polygon class="a" points="5.652 20.887 7.116 21.998 6.509 20.278 7.89 19.192 6.162 19.192 5.664 17.549 5.065 19.195 3.322 19.245 4.716 20.24 4.171 21.924 5.652 20.887"/><polygon class="a" points="12.804 5.178 12.256 6.822 10.461 6.822 11.907 7.869 11.355 9.574 12.804 8.475 14.252 9.574 13.699 7.867 15.094 6.822 13.351 6.822 12.804 5.178"/><polygon class="a" points="7.59 10.4 6.992 12.044 5.248 12.044 6.642 13.089 6.093 14.788 7.58 13.697 9.042 14.806 8.436 13.088 9.828 12.044 8.089 12.044 7.59 10.4"/><polygon class="a" points="19.995 3.166 19.446 4.812 17.652 4.862 19.098 5.858 18.551 7.55 19.993 6.505 21.443 7.605 20.89 5.896 22.273 4.81 20.543 4.81 19.995 3.166"/><polygon class="a" points="27.195 5.178 26.598 6.822 24.853 6.822 26.248 7.867 25.698 9.565 27.185 8.475 28.648 9.584 28.041 7.866 29.434 6.822 27.694 6.822 27.195 5.178"/><path class="b" d="M64.769,24.458a3.208,3.208,0,0,1-1.341-.276,3.118,3.118,0,0,1-1.058-.774,3.655,3.655,0,0,1-.693-1.165,4.151,4.151,0,0,1-.249-1.462,4.463,4.463,0,0,1,.228-1.441,3.557,3.557,0,0,1,.647-1.166,3.065,3.065,0,0,1,.99-.774,2.8,2.8,0,0,1,1.26-.282,2.614,2.614,0,0,1,1.34.349,2.423,2.423,0,0,1,.922.944v-3.92h2.156V21.9a.752.752,0,0,0,.1.451.5.5,0,0,0,.358.155v1.819a4.177,4.177,0,0,1-.512.088c-.144.012-.278.019-.4.019A1.612,1.612,0,0,1,67.6,24.2a.914.914,0,0,1-.405-.681l-.04-.363a2.415,2.415,0,0,1-1.016.983A2.987,2.987,0,0,1,64.769,24.458Zm.579-1.818a1.561,1.561,0,0,0,.854-.263,1.672,1.672,0,0,0,.627-.72V20.175a1.952,1.952,0,0,0-.653-.883,1.533,1.533,0,0,0-.937-.342,1.335,1.335,0,0,0-.639.154,1.7,1.7,0,0,0-.5.411,1.807,1.807,0,0,0-.33.593,2.185,2.185,0,0,0-.115.714,2.01,2.01,0,0,0,.128.727,1.779,1.779,0,0,0,.35.579,1.521,1.521,0,0,0,.539.377A1.714,1.714,0,0,0,65.348,22.64Z"/><path class="b" d="M70.583,16.444V14.491h2.155v1.953Zm0,7.88V17.252h2.155v7.072Z"/><path class="b" d="M75.9,24.324l-2.5-7.072h2.222L77.163,22.6l1.563-5.347h2.006L78.24,24.324Z"/><path class="b" d="M84.543,24.458a4.166,4.166,0,0,1-1.6-.29,3.515,3.515,0,0,1-1.2-.788A3.371,3.371,0,0,1,81,22.229a3.708,3.708,0,0,1-.256-1.367A4.071,4.071,0,0,1,81,19.414a3.514,3.514,0,0,1,.741-1.192,3.454,3.454,0,0,1,1.192-.808,4.123,4.123,0,0,1,1.61-.3,4.074,4.074,0,0,1,1.6.3,3.528,3.528,0,0,1,1.185.8,3.426,3.426,0,0,1,.734,1.165,3.9,3.9,0,0,1,.249,1.388c0,.126,0,.249-.013.37a2.868,2.868,0,0,1-.04.317H83.034a1.449,1.449,0,0,0,.519,1.084,1.648,1.648,0,0,0,1.057.371,1.939,1.939,0,0,0,.91-.23,1.166,1.166,0,0,0,.585-.619l1.833.512a3.309,3.309,0,0,1-1.294,1.36A4,4,0,0,1,84.543,24.458Zm1.495-4.336a1.623,1.623,0,0,0-.485-1.065,1.458,1.458,0,0,0-1.037-.39,1.44,1.44,0,0,0-1.044.4,1.649,1.649,0,0,0-.479,1.058Z"/><path class="b" d="M93.711,19.1a4.172,4.172,0,0,0-1.415.256,1.719,1.719,0,0,0-.915.728v4.243H89.226V17.252h1.979V18.68a3,3,0,0,1,.937-1.118,2.159,2.159,0,0,1,1.218-.418h.216a.688.688,0,0,1,.135.014Z"/><path class="b" d="M97.341,24.458a5.6,5.6,0,0,1-1.778-.29,4.043,4.043,0,0,1-1.482-.841l.768-1.32a6.331,6.331,0,0,0,1.259.687,3.191,3.191,0,0,0,1.179.242,1.2,1.2,0,0,0,.647-.147.485.485,0,0,0,.228-.432.508.508,0,0,0-.289-.451,4.423,4.423,0,0,0-1.018-.357q-.713-.2-1.2-.39a3.379,3.379,0,0,1-.8-.418,1.356,1.356,0,0,1-.445-.526,1.672,1.672,0,0,1-.134-.7,2.2,2.2,0,0,1,.808-1.737,2.824,2.824,0,0,1,.9-.486,3.51,3.51,0,0,1,1.125-.174,4.984,4.984,0,0,1,1.488.215,3.73,3.73,0,0,1,1.34.781l-.835,1.294a5.69,5.69,0,0,0-1.078-.607,2.451,2.451,0,0,0-.915-.188,1.157,1.157,0,0,0-.593.141.524.524,0,0,0,.019.9,4.39,4.39,0,0,0,.977.323,12.611,12.611,0,0,1,1.273.4,3.424,3.424,0,0,1,.842.452,1.532,1.532,0,0,1,.472.572,1.829,1.829,0,0,1,.147.767,2.017,2.017,0,0,1-.781,1.67A3.3,3.3,0,0,1,97.341,24.458Z"/><path class="b" d="M101.2,16.444V14.491h2.156v1.953Zm0,7.88V17.252h2.156v7.072Z"/><path class="b" d="M109.29,23.947a8.384,8.384,0,0,1-1.017.349,4.166,4.166,0,0,1-1.151.162,2.811,2.811,0,0,1-.762-.1,1.689,1.689,0,0,1-.626-.323,1.508,1.508,0,0,1-.424-.586,2.23,2.23,0,0,1-.155-.875V18.882h-.9v-1.63h.9V15h2.156v2.25h1.441v1.63h-1.441v2.95a.641.641,0,0,0,.174.5.648.648,0,0,0,.445.155,1.651,1.651,0,0,0,.5-.081,3.092,3.092,0,0,0,.444-.175Z"/><path class="b" d="M110.105,25.388a3.157,3.157,0,0,0,.5.135,2.649,2.649,0,0,0,.425.04.732.732,0,0,0,.606-.27,2.676,2.676,0,0,0,.39-.969l-2.693-7.072h2.222l1.643,5.226,1.414-5.226h2.021l-2.694,8.216a2.794,2.794,0,0,1-2.734,1.967,3.292,3.292,0,0,1-.546-.047,2.944,2.944,0,0,1-.559-.155Z"/><path class="c" d="M62,30.337V27h.423v3.337Z"/><path class="c" d="M65.479,30.337h-.414V28.965a1.06,1.06,0,0,0-.119-.573.408.408,0,0,0-.364-.179.69.69,0,0,0-.254.049,1.014,1.014,0,0,0-.24.134.922.922,0,0,0-.2.2.862.862,0,0,0-.127.258v1.481h-.413V27.884h.376v.526A1.076,1.076,0,0,1,64.146,28a1.208,1.208,0,0,1,.6-.155.723.723,0,0,1,.353.078.605.605,0,0,1,.225.216.941.941,0,0,1,.12.327,2.177,2.177,0,0,1,.035.408Z"/><path class="c" d="M66.4,30.337V28.208h-.333v-.324H66.4v-.052a1.14,1.14,0,0,1,.2-.715.663.663,0,0,1,.551-.258,1.061,1.061,0,0,1,.286.039.994.994,0,0,1,.254.112l-.1.3a.579.579,0,0,0-.162-.075.712.712,0,0,0-.191-.028.359.359,0,0,0-.314.155.78.78,0,0,0-.109.451v.067h.654v.324h-.654v2.129Z"/><path class="c" d="M69.076,30.384A1.208,1.208,0,0,1,68.181,30a1.208,1.208,0,0,1-.251-.4,1.346,1.346,0,0,1,0-.973,1.269,1.269,0,0,1,.254-.4,1.23,1.23,0,0,1,1.786,0,1.305,1.305,0,0,1,.254.4,1.36,1.36,0,0,1,0,.973,1.219,1.219,0,0,1-.647.681A1.188,1.188,0,0,1,69.076,30.384Zm-.813-1.265a.994.994,0,0,0,.063.358.942.942,0,0,0,.174.287.829.829,0,0,0,.259.192.755.755,0,0,0,.635,0,.834.834,0,0,0,.26-.2.91.91,0,0,0,.176-.291,1,1,0,0,0,.064-.36.976.976,0,0,0-.064-.355.921.921,0,0,0-.176-.291.819.819,0,0,0-.26-.2.733.733,0,0,0-.318-.071.716.716,0,0,0-.317.073.848.848,0,0,0-.259.2.95.95,0,0,0-.174.291A1.007,1.007,0,0,0,68.263,29.119Z"/><path class="c" d="M72.317,28.245a1.07,1.07,0,0,0-.547.16.817.817,0,0,0-.336.418v1.514h-.413V27.884h.384v.568a1.173,1.173,0,0,1,.334-.411.834.834,0,0,1,.442-.177h.08a.29.29,0,0,1,.056,0Z"/><path class="c" d="M76.608,30.337h-.413V28.965a1.027,1.027,0,0,0-.125-.569.414.414,0,0,0-.368-.183.65.65,0,0,0-.454.181,1,1,0,0,0-.284.467v1.476H74.55V28.965a1.029,1.029,0,0,0-.122-.573.411.411,0,0,0-.366-.179.669.669,0,0,0-.452.176.964.964,0,0,0-.287.467v1.481H72.91V27.884h.376v.526a1.127,1.127,0,0,1,.39-.421,1.015,1.015,0,0,1,.541-.148.7.7,0,0,1,.491.167.73.73,0,0,1,.223.43,1.023,1.023,0,0,1,.935-.6.737.737,0,0,1,.355.078.6.6,0,0,1,.228.216.984.984,0,0,1,.122.327,2.016,2.016,0,0,1,.037.408Z"/><path class="c" d="M78.086,30.384a.88.88,0,0,1-.324-.059.8.8,0,0,1-.262-.162.779.779,0,0,1-.174-.242.724.724,0,0,1-.063-.3.635.635,0,0,1,.075-.308.732.732,0,0,1,.214-.238,1.112,1.112,0,0,1,.329-.154,1.443,1.443,0,0,1,.416-.057,2.039,2.039,0,0,1,.362.033,1.628,1.628,0,0,1,.324.089v-.2a.59.59,0,0,0-.648-.644,1.363,1.363,0,0,0-.78.287l-.137-.268a1.7,1.7,0,0,1,.954-.32,1.051,1.051,0,0,1,.755.259.959.959,0,0,1,.269.728v1q0,.147.132.15v.358l-.108.014a.833.833,0,0,1-.089,0,.267.267,0,0,1-.2-.072.307.307,0,0,1-.087-.177l-.009-.173a1.073,1.073,0,0,1-.416.336A1.278,1.278,0,0,1,78.086,30.384Zm.107-.311a1.016,1.016,0,0,0,.411-.082.667.667,0,0,0,.29-.219.259.259,0,0,0,.089-.182v-.362a1.692,1.692,0,0,0-.625-.118.881.881,0,0,0-.505.132.4.4,0,0,0-.195.343.465.465,0,0,0,.153.348.524.524,0,0,0,.171.1A.568.568,0,0,0,78.193,30.073Z"/><path class="c" d="M81.472,30.215c-.026.013-.058.027-.1.045s-.087.034-.139.052a1.391,1.391,0,0,1-.169.042,1.178,1.178,0,0,1-.19.016.634.634,0,0,1-.391-.125.456.456,0,0,1-.164-.388V28.208h-.334v-.324h.334v-.819h.414v.819h.55v.324h-.55V29.73a.256.256,0,0,0,.089.2.3.3,0,0,0,.189.061.589.589,0,0,0,.222-.04.959.959,0,0,0,.139-.063Z"/><path class="c" d="M82.053,27.423v-.517h.413v.517Zm0,2.914V27.884h.413v2.453Z"/><path class="c" d="M84.413,30.384A1.208,1.208,0,0,1,83.518,30a1.208,1.208,0,0,1-.251-.4,1.346,1.346,0,0,1,0-.973,1.285,1.285,0,0,1,.253-.4,1.248,1.248,0,0,1,.39-.278,1.213,1.213,0,0,1,.5-.1,1.211,1.211,0,0,1,.9.381,1.305,1.305,0,0,1,.254.4,1.353,1.353,0,0,1,0,.973,1.2,1.2,0,0,1-.253.4,1.227,1.227,0,0,1-.393.277A1.188,1.188,0,0,1,84.413,30.384ZM83.6,29.119a.994.994,0,0,0,.063.358.942.942,0,0,0,.174.287.829.829,0,0,0,.259.192.753.753,0,0,0,.634,0,.827.827,0,0,0,.261-.2.91.91,0,0,0,.176-.291,1,1,0,0,0,.063-.36.976.976,0,0,0-.063-.355.921.921,0,0,0-.176-.291.812.812,0,0,0-.261-.2.725.725,0,0,0-.317-.071.716.716,0,0,0-.317.073.848.848,0,0,0-.259.2.95.95,0,0,0-.174.291A1.007,1.007,0,0,0,83.6,29.119Z"/><path class="c" d="M88.487,30.337h-.414V28.965a1.06,1.06,0,0,0-.119-.573.408.408,0,0,0-.364-.179.69.69,0,0,0-.254.049,1.014,1.014,0,0,0-.24.134.949.949,0,0,0-.2.2.912.912,0,0,0-.127.258v1.481h-.413V27.884h.376v.526a1.086,1.086,0,0,1,.42-.414,1.208,1.208,0,0,1,.6-.155.716.716,0,0,1,.352.078.608.608,0,0,1,.226.216.941.941,0,0,1,.12.327,2.177,2.177,0,0,1,.035.408Z"/><path class="c" d="M92.533,27.7a.7.7,0,0,0-.15-.127,1.315,1.315,0,0,0-.212-.11,1.422,1.422,0,0,0-.256-.08,1.3,1.3,0,0,0-.289-.03.909.909,0,0,0-.571.145.489.489,0,0,0-.181.4.452.452,0,0,0,.052.226.429.429,0,0,0,.162.153,1.265,1.265,0,0,0,.275.111c.11.031.24.063.39.1a3.859,3.859,0,0,1,.468.129,1.42,1.42,0,0,1,.357.181.723.723,0,0,1,.226.264.852.852,0,0,1,.077.38.869.869,0,0,1-.094.416.824.824,0,0,1-.256.291,1.084,1.084,0,0,1-.384.169,1.95,1.95,0,0,1-.479.055,2.2,2.2,0,0,1-.73-.12,2,2,0,0,1-.627-.351l.2-.356a1.1,1.1,0,0,0,.194.159,1.548,1.548,0,0,0,.272.144,2.021,2.021,0,0,0,.33.1,1.643,1.643,0,0,0,.369.04,1.016,1.016,0,0,0,.554-.127.423.423,0,0,0,.2-.381.428.428,0,0,0-.064-.237.54.54,0,0,0-.185-.167,1.429,1.429,0,0,0-.3-.124c-.121-.036-.258-.073-.411-.11a4.09,4.09,0,0,1-.447-.132,1.246,1.246,0,0,1-.322-.169.634.634,0,0,1-.195-.24.793.793,0,0,1-.065-.338.968.968,0,0,1,.088-.424.9.9,0,0,1,.249-.31,1.1,1.1,0,0,1,.381-.19,1.747,1.747,0,0,1,.48-.063,1.708,1.708,0,0,1,.61.1,1.669,1.669,0,0,1,.484.277Z"/><path class="c" d="M93.56,31c.041.007.082.012.122.015l.094,0a.19.19,0,0,0,.1-.026.277.277,0,0,0,.09-.1,2.094,2.094,0,0,0,.1-.208q.057-.135.141-.351L93.17,27.884H93.6l.836,2.082.761-2.082h.4L94.4,30.98a.706.706,0,0,1-.218.29.648.648,0,0,1-.421.125c-.028,0-.057,0-.087,0s-.066-.01-.11-.019Z"/><path class="c" d="M97.012,30.384a1.864,1.864,0,0,1-.582-.092,1.4,1.4,0,0,1-.494-.266l.178-.277a1.74,1.74,0,0,0,.433.247,1.267,1.267,0,0,0,.456.082.755.755,0,0,0,.425-.105.34.34,0,0,0,.158-.3.27.27,0,0,0-.043-.153.348.348,0,0,0-.127-.11,1.091,1.091,0,0,0-.216-.085c-.088-.024-.189-.052-.305-.08-.148-.037-.275-.073-.381-.107a1.06,1.06,0,0,1-.263-.122.431.431,0,0,1-.15-.17.556.556,0,0,1-.047-.244.684.684,0,0,1,.272-.567.9.9,0,0,1,.3-.145,1.286,1.286,0,0,1,.369-.05,1.465,1.465,0,0,1,.518.09,1.274,1.274,0,0,1,.4.234l-.188.25a1.077,1.077,0,0,0-.348-.2,1.193,1.193,0,0,0-.4-.068.723.723,0,0,0-.383.1.335.335,0,0,0-.158.308.292.292,0,0,0,.031.142.265.265,0,0,0,.1.1.823.823,0,0,0,.181.075c.074.022.162.045.265.071.164.037.3.076.426.115a1.206,1.206,0,0,1,.3.139.49.49,0,0,1,.237.451.653.653,0,0,1-.263.545A1.143,1.143,0,0,1,97.012,30.384Z"/><path class="c" d="M99.955,30.215c-.025.013-.058.027-.1.045s-.086.034-.138.052a1.491,1.491,0,0,1-.169.042,1.191,1.191,0,0,1-.191.016.629.629,0,0,1-.39-.125.454.454,0,0,1-.164-.388V28.208H98.47v-.324H98.8v-.819h.414v.819h.55v.324h-.55V29.73a.253.253,0,0,0,.089.2.3.3,0,0,0,.188.061.6.6,0,0,0,.223-.04.987.987,0,0,0,.138-.063Z"/><path class="c" d="M101.564,30.384a1.233,1.233,0,0,1-.506-.1,1.188,1.188,0,0,1-.4-.275,1.279,1.279,0,0,1-.256-.406,1.36,1.36,0,0,1-.092-.492,1.336,1.336,0,0,1,.092-.489,1.265,1.265,0,0,1,.259-.4,1.243,1.243,0,0,1,.4-.275,1.257,1.257,0,0,1,.507-.1,1.192,1.192,0,0,1,1.14.778,1.3,1.3,0,0,1,.087.473c0,.034,0,.065,0,.094a.614.614,0,0,1-.007.065h-2.035a.949.949,0,0,0,.084.334.853.853,0,0,0,.439.428.767.767,0,0,0,.3.06.824.824,0,0,0,.221-.03,1.029,1.029,0,0,0,.2-.082.716.716,0,0,0,.167-.127.5.5,0,0,0,.11-.169l.358.1a.93.93,0,0,1-.167.249,1.162,1.162,0,0,1-.244.195,1.257,1.257,0,0,1-.309.129A1.314,1.314,0,0,1,101.564,30.384Zm.842-1.439a.889.889,0,0,0-.087-.321.843.843,0,0,0-.183-.252.827.827,0,0,0-.567-.221.817.817,0,0,0-.309.059.787.787,0,0,0-.257.165.848.848,0,0,0-.179.251.955.955,0,0,0-.082.319Z"/><path class="c" d="M107.168,30.337h-.413V28.965a1.027,1.027,0,0,0-.125-.569.414.414,0,0,0-.368-.183.649.649,0,0,0-.454.181,1,1,0,0,0-.285.467v1.476h-.414V28.965a1.029,1.029,0,0,0-.122-.573.411.411,0,0,0-.366-.179.667.667,0,0,0-.451.176.95.95,0,0,0-.287.467v1.481h-.413V27.884h.376v.526a1.116,1.116,0,0,1,.389-.421,1.017,1.017,0,0,1,.541-.148.7.7,0,0,1,.492.167.723.723,0,0,1,.222.43,1.025,1.025,0,0,1,.936-.6.733.733,0,0,1,.354.078.6.6,0,0,1,.229.216,1.03,1.03,0,0,1,.122.327,2.091,2.091,0,0,1,.037.408Z"/><path class="c" d="M62.063,35.337V33.208H61.73v-.324h.333v-.052a1.134,1.134,0,0,1,.2-.715.66.66,0,0,1,.55-.258,1.074,1.074,0,0,1,.287.039,1,1,0,0,1,.253.112l-.1.3a.579.579,0,0,0-.162-.075.712.712,0,0,0-.191-.028.359.359,0,0,0-.314.155.789.789,0,0,0-.108.451v.067h.653v.324h-.653v2.129Z"/><path class="c" d="M64.735,35.384A1.208,1.208,0,0,1,63.84,35a1.208,1.208,0,0,1-.251-.4,1.346,1.346,0,0,1,0-.973,1.269,1.269,0,0,1,.254-.4,1.23,1.23,0,0,1,1.786,0,1.305,1.305,0,0,1,.254.4,1.346,1.346,0,0,1,0,.973,1.219,1.219,0,0,1-.647.681A1.188,1.188,0,0,1,64.735,35.384Zm-.813-1.265a.994.994,0,0,0,.063.358.942.942,0,0,0,.174.287.829.829,0,0,0,.259.192.755.755,0,0,0,.635,0,.834.834,0,0,0,.26-.2.893.893,0,0,0,.176-.291,1,1,0,0,0,.064-.36.976.976,0,0,0-.064-.355.9.9,0,0,0-.176-.291.819.819,0,0,0-.26-.2.729.729,0,0,0-.318-.071.719.719,0,0,0-.317.073.848.848,0,0,0-.259.2.95.95,0,0,0-.174.291A1.007,1.007,0,0,0,63.922,34.119Z"/><path class="c" d="M67.978,33.245a1.073,1.073,0,0,0-.548.16.817.817,0,0,0-.336.418v1.514h-.413V32.884h.384v.568a1.173,1.173,0,0,1,.334-.411.837.837,0,0,1,.442-.177h.08a.31.31,0,0,1,.057.005Z"/><path class="c" d="M72.1,34.961v.376H69.829V32h2.224v.376h-1.8v1.081h1.565v.353H70.252v1.151Z"/><path class="c" d="M73.492,35.384a.686.686,0,0,1-.583-.259,1.255,1.255,0,0,1-.2-.771v-1.47h.413v1.39q0,.753.521.752a.792.792,0,0,0,.478-.162.957.957,0,0,0,.331-.443V32.884h.414v1.945c0,.1.044.148.131.15v.358l-.11.012c-.027,0-.052,0-.077,0a.294.294,0,0,1-.2-.073.247.247,0,0,1-.087-.18l-.009-.287a1.146,1.146,0,0,1-.433.425A1.191,1.191,0,0,1,73.492,35.384Z"/><path class="c" d="M77.061,33.245a1.073,1.073,0,0,0-.548.16.817.817,0,0,0-.336.418v1.514h-.413V32.884h.384v.568a1.173,1.173,0,0,1,.334-.411.837.837,0,0,1,.442-.177H77a.31.31,0,0,1,.057.005Z"/><path class="c" d="M78.68,35.384a1.212,1.212,0,0,1-.9-.381,1.24,1.24,0,0,1-.251-.4,1.346,1.346,0,0,1,0-.973,1.305,1.305,0,0,1,.254-.4,1.229,1.229,0,0,1,1.786,0,1.269,1.269,0,0,1,.254.4,1.346,1.346,0,0,1,0,.973,1.2,1.2,0,0,1-.254.4,1.212,1.212,0,0,1-.392.277A1.2,1.2,0,0,1,78.68,35.384Zm-.814-1.265a.994.994,0,0,0,.064.358.923.923,0,0,0,.174.287.836.836,0,0,0,.258.192.755.755,0,0,0,.635,0,.827.827,0,0,0,.261-.2.91.91,0,0,0,.176-.291,1,1,0,0,0,.063-.36.976.976,0,0,0-.063-.355.921.921,0,0,0-.176-.291.812.812,0,0,0-.261-.2.728.728,0,0,0-.317-.071.72.72,0,0,0-.318.073.856.856,0,0,0-.258.2.931.931,0,0,0-.174.291A1.008,1.008,0,0,0,77.866,34.119Z"/><path class="c" d="M81.945,35.384a.967.967,0,0,1-.538-.151,1.135,1.135,0,0,1-.369-.38v1.485h-.413V32.884h.366v.46a1.15,1.15,0,0,1,.379-.365,1,1,0,0,1,.515-.138,1.057,1.057,0,0,1,.465.1,1.167,1.167,0,0,1,.366.281,1.348,1.348,0,0,1,.329.885,1.5,1.5,0,0,1-.08.5,1.23,1.23,0,0,1-.226.405,1.084,1.084,0,0,1-.347.272A.979.979,0,0,1,81.945,35.384Zm-.127-.358a.7.7,0,0,0,.331-.077.8.8,0,0,0,.254-.207.887.887,0,0,0,.162-.294.992.992,0,0,0,.057-.338.954.954,0,0,0-.244-.641.853.853,0,0,0-.266-.2.764.764,0,0,0-.331-.073.663.663,0,0,0-.233.045,1.128,1.128,0,0,0-.226.117.813.813,0,0,0-.182.174.534.534,0,0,0-.1.214v.7a1.065,1.065,0,0,0,.132.229.928.928,0,0,0,.4.3A.676.676,0,0,0,81.818,35.026Z"/><path class="c" d="M84.851,35.384a1.234,1.234,0,0,1-.507-.1,1.2,1.2,0,0,1-.4-.275,1.279,1.279,0,0,1-.256-.406,1.359,1.359,0,0,1-.091-.492,1.336,1.336,0,0,1,.091-.489,1.229,1.229,0,0,1,1.163-.78,1.223,1.223,0,0,1,.506.1,1.189,1.189,0,0,1,.634.675,1.3,1.3,0,0,1,.087.473c0,.034,0,.065,0,.094a.614.614,0,0,1-.007.065H84.038a.949.949,0,0,0,.084.334.869.869,0,0,0,.184.259.857.857,0,0,0,.256.169.759.759,0,0,0,.3.06.824.824,0,0,0,.221-.03,1,1,0,0,0,.2-.082.7.7,0,0,0,.167-.127.5.5,0,0,0,.11-.169l.358.1a.93.93,0,0,1-.167.249,1.113,1.113,0,0,1-.244.2,1.257,1.257,0,0,1-.309.129A1.312,1.312,0,0,1,84.851,35.384Zm.841-1.439a.87.87,0,0,0-.087-.321.843.843,0,0,0-.183-.252.838.838,0,0,0-.876-.162.787.787,0,0,0-.257.165.848.848,0,0,0-.179.251.955.955,0,0,0-.082.319Z"/><path class="b" d="M45.446,18.384a.938.938,0,0,0,.283-.754,1,1,0,0,0-.25-.728.8.8,0,0,0-.6-.256H42.631v1.981H44.8A.963.963,0,0,0,45.446,18.384Zm-.269,1.98H42.631v2.088h2.451a.97.97,0,0,0,.714-.283,1.006,1.006,0,0,0,.283-.741,1.144,1.144,0,0,0-.256-.754A.805.805,0,0,0,45.177,20.364ZM56.393,18.95a1.459,1.459,0,0,0-1.125.512,1.782,1.782,0,0,0-.33.586,2.192,2.192,0,0,0-.122.747,1.959,1.959,0,0,0,.445,1.341,1.445,1.445,0,0,0,1.132.5,1.42,1.42,0,0,0,.619-.135,1.513,1.513,0,0,0,.492-.377,1.832,1.832,0,0,0,.33-.586,2.235,2.235,0,0,0,.121-.748,1.956,1.956,0,0,0-.444-1.34A1.426,1.426,0,0,0,56.393,18.95ZM43.81,3.5A16.667,16.667,0,1,0,60.477,20.168,16.667,16.667,0,0,0,43.81,3.5ZM31.861,12.044l.548-1.644.548,1.644H34.7L33.3,13.089l.553,1.708-1.448-1.1-1.448,1.1.552-1.708-1.394-1.045Zm2,17.135-1.45-1.1-1.443,1.044.549-1.694-1.394-1.046h1.742l.548-1.644.548,1.644h1.73L33.3,27.471ZM35.829,22l-1.412-1.11-1.48,1.036.544-1.684-1.393-.995,1.743-.05.6-1.646.5,1.643h1.728l-1.383,1.087Zm12.243.952a2.2,2.2,0,0,1-.7.761,3.3,3.3,0,0,1-1.037.458,4.956,4.956,0,0,1-1.253.155h-4.66V14.761h5.32a1.888,1.888,0,0,1,.9.216,2.253,2.253,0,0,1,.687.558,2.566,2.566,0,0,1,.438.781,2.677,2.677,0,0,1,.155.9,2.579,2.579,0,0,1-.344,1.293,2.165,2.165,0,0,1-1.03.916,2.481,2.481,0,0,1,1.3.862,2.534,2.534,0,0,1,.477,1.59A2.164,2.164,0,0,1,48.072,22.95Zm3.546,1.374H49.463V17.253h2.155Zm0-7.88H49.463V14.491h2.155Zm7.576,6.917a3.485,3.485,0,0,1-1.192.8,4.51,4.51,0,0,1-3.219,0,3.5,3.5,0,0,1-1.192-.8,3.386,3.386,0,0,1-.735-1.172,4.027,4.027,0,0,1,0-2.788,3.377,3.377,0,0,1,.735-1.172,3.6,3.6,0,0,1,1.192-.808,4.051,4.051,0,0,1,1.61-.3,4,4,0,0,1,1.6.3,3.623,3.623,0,0,1,1.186.808,3.467,3.467,0,0,1,.741,1.172,3.875,3.875,0,0,1,.256,1.394,3.949,3.949,0,0,1-.249,1.394A3.386,3.386,0,0,1,59.194,23.361Z"/></svg>